<?xml version="1.0" standalone="no"?>
<!DOCTYPE svg PUBLIC "-//W3C//DTD SVG 20010904//EN"
 "http://www.w3.org/TR/2001/REC-SVG-20010904/DTD/svg10.dtd">
<svg version="1.0" xmlns="http://www.w3.org/2000/svg"
 width="500.000000pt" height="500.000000pt" viewBox="0 0 500.000000 500.000000"
 preserveAspectRatio="xMidYMid meet">
<metadata>
Created by potrace 1.11, written by Peter Selinger 2001-2013
</metadata>
<g transform="translate(0.000000,500.000000) scale(0.100000,-0.100000)"
fill="#000000" stroke="none">
<path d="M0 2500 l0 -2500 2500 0 2500 0 0 2500 0 2500 -2500 0 -2500 0 0
-2500z m1838 1042 l2 -342 54 54 c108 107 270 162 451 153 273 -15 457 -149
540 -392 39 -115 45 -204 45 -662 l0 -443 -99 0 -100 0 -3 463 c-5 505 -5 513
-67 635 -38 76 -120 151 -197 181 -82 32 -228 40 -309 16 -165 -48 -251 -138
-295 -311 -18 -71 -20 -112 -20 -531 l0 -453 -100 0 -100 0 0 990 0 991 98 -3
97 -3 3 -343z m552 -906 c0 -483 5 -541 61 -655 72 -145 203 -221 384 -221
167 0 308 79 375 210 54 106 54 102 59 615 l6 480 103 3 102 3 0 -991 0 -991
-102 3 -103 3 -3 338 -2 337 -53 -50 c-109 -106 -264 -157 -446 -147 -301 16
-482 162 -563 452 -21 76 -22 101 -26 563 l-3 482 105 0 106 0 0 -434z"/>
</g>
</svg>
