<svg width="44" height="18" viewBox="0 0 44 18"  fill="none" xmlns="http://www.w3.org/2000/svg">
<path d="M8.03801 2.32079C7.52095 2.92774 6.69722 3.4087 5.87487 3.33825C5.76624 2.51995 6.17604 1.64338 6.64909 1.10011C7.16478 0.480958 8.06689 0.0365799 8.79848 0C8.88511 0.854885 8.54682 1.69487 8.03939 2.32079H8.03801ZM8.79023 3.49947C7.59521 3.42767 6.56933 4.17552 6.00276 4.17552C5.42382 4.17552 4.55609 3.5347 3.61135 3.55637C2.38608 3.57128 1.24056 4.26088 0.617612 5.37047C-0.67917 7.57745 0.280696 10.8453 1.5266 12.6444C2.1358 13.5332 2.86463 14.5073 3.82588 14.4802C4.73486 14.4436 5.10066 13.8882 6.19666 13.8882C7.30642 13.8882 7.62134 14.4802 8.58945 14.4585C9.5837 14.4436 10.2135 13.5698 10.8227 12.681C11.5172 11.6717 11.8032 10.6827 11.8183 10.6339C11.8032 10.6122 9.89174 9.88604 9.87798 7.69803C9.86286 5.86226 11.381 4.98841 11.4457 4.93828C10.5931 3.66882 9.24678 3.5347 8.78885 3.50083L8.79023 3.49947ZM15.6881 1.01475V14.3664H17.7714V9.80205H20.6524C23.2804 9.80205 25.1286 8.00286 25.1286 5.40569C25.1286 2.8031 23.3175 1.01611 20.7239 1.01611L15.6881 1.01475ZM17.7714 2.76517H20.1711C21.9753 2.76517 23.0081 3.72437 23.0081 5.41111C23.0081 7.09785 21.9753 8.06518 20.1574 8.06518H17.7714V2.76517ZM28.9227 14.4653C30.2332 14.4653 31.4433 13.8096 31.9962 12.7637H32.0402V14.3664H33.9654V7.71835C33.9654 5.79994 32.4197 4.55216 30.0338 4.55216C27.828 4.55216 26.1943 5.81484 26.138 7.54358H28.0068C28.165 6.7185 28.924 6.182 29.9774 6.182C31.2522 6.182 31.9618 6.77405 31.9618 7.86196V8.59491L29.3696 8.75072C26.9479 8.89839 25.6443 9.87927 25.6443 11.5945C25.6443 13.3232 26.9919 14.4667 28.924 14.4667L28.9227 14.4653ZM29.4892 12.8842C28.3781 12.8842 27.6699 12.3545 27.6699 11.5443C27.6699 10.7043 28.3506 10.2098 29.646 10.1313L31.9604 9.99037V10.745C31.9604 11.9955 30.8933 12.8842 29.481 12.8842H29.4892ZM36.537 18C38.5626 18 39.517 17.2237 40.3476 14.888L44 4.68493H41.8877L39.4386 12.5659H39.3946L36.9454 4.68493H34.7685L38.2931 14.4016L38.106 14.9937C37.7829 15.9895 37.2686 16.3756 36.3513 16.3756C36.1863 16.3756 35.8714 16.3553 35.7421 16.3417V17.9445C35.8631 17.9783 36.3802 17.9932 36.5301 17.9932L36.537 18Z" fill="black"/>
</svg>
