<?xml version="1.0" encoding="utf-8"?> 
<!-- Generator: Adobe Illustrator 22.1.0, SVG Export Plug-In . SVG Version: 6.00 Build 0)  -->
<svg version="1.1" id="Слой_1" width="19px" height="19px" xmlns="http://www.w3.org/2000/svg" xmlns:xlink="http://www.w3.org/1999/xlink" x="0px" y="0px"
	 viewBox="0 0 19 19" style="enable-background:new 0 0 19 19;" xml:space="preserve">
<style type="text/css">
	.st0{fill:url(#SVGID_1_);}
	.st1{fill:#FFFFFF;}
</style>
<linearGradient id="SVGID_1_" gradientUnits="userSpaceOnUse" x1="9.5" y1="20" x2="9.5" y2="1" gradientTransform="matrix(1 0 0 -1 0 20)">
	<stop  offset="0" style="stop-color:#4773FF"/>
	<stop  offset="1" style="stop-color:#AC1FEE"/>
</linearGradient>
<path class="st0" d="M9.5,0L9.5,0C14.7,0,19,4.3,19,9.5l0,0c0,5.2-4.3,9.5-9.5,9.5l0,0C4.3,19,0,14.7,0,9.5l0,0C0,4.3,4.3,0,9.5,0z"
	/>
<path class="st1" d="M11.7,9.2L8.6,6.1C8.6,6,8.5,6,8.4,6C8.3,6,8.2,6,8.1,6.1L7.9,6.3c-0.1,0.1-0.1,0.4,0,0.5l2.6,2.6l-2.6,2.6
	c-0.1,0.1-0.1,0.2-0.1,0.3c0,0.1,0,0.2,0.1,0.3l0.2,0.2C8.2,13,8.3,13,8.4,13c0.1,0,0.2,0,0.3-0.1l3.1-3.1c0.1-0.1,0.1-0.2,0.1-0.3
	C11.9,9.4,11.8,9.3,11.7,9.2z"/>
</svg>
