<?xml version="1.0" encoding="utf-8"?>
<!-- Generator: Adobe Illustrator 22.1.0, SVG Export Plug-In . SVG Version: 6.00 Build 0)  -->
<svg version="1.1" id="Слой_1" width="33px" height="52" xmlns="http://www.w3.org/2000/svg" xmlns:xlink="http://www.w3.org/1999/xlink" x="0px" y="0px"
	 viewBox="0 0 31.2 52.1" style="enable-background:new 0 0 31.2 52.1;" xml:space="preserve">
<style type="text/css">
	.st0{fill:url(#SVGID_1_);}
	.st1{fill:url(#SVGID_2_);}
	.st2{fill:url(#SVGID_3_);}
	.st3{fill:url(#SVGID_4_);}
	.st4{fill:#2957FC;fill-opacity:0.1;}
</style>
<linearGradient id="SVGID_1_" gradientUnits="userSpaceOnUse" x1="11.3821" y1="45.3834" x2="11.3821" y2="43.3605" gradientTransform="matrix(1 0 0 -1 0 60.2668)">
	<stop  offset="0" style="stop-color:#2957FC"/>
	<stop  offset="1" style="stop-color:#AC1FEE"/>
</linearGradient>
<path class="st0" d="M11.4,14.9c-0.4,0-0.7,0.3-0.7,0.7v0.7c0,0.4,0.3,0.7,0.7,0.7c0.4,0,0.7-0.3,0.7-0.7v-0.7
	C12,15.2,11.7,14.9,11.4,14.9z"/>
<linearGradient id="SVGID_2_" gradientUnits="userSpaceOnUse" x1="19.8367" y1="45.3835" x2="19.8367" y2="43.3606" gradientTransform="matrix(1 0 0 -1 0 60.2668)">
	<stop  offset="0" style="stop-color:#2957FC"/>
	<stop  offset="1" style="stop-color:#AC1FEE"/>
</linearGradient>
<path class="st1" d="M19.8,14.9c-0.4,0-0.7,0.3-0.7,0.7v0.7c0,0.4,0.3,0.7,0.7,0.7c0.4,0,0.7-0.3,0.7-0.7v-0.7
	C20.5,15.2,20.2,14.9,19.8,14.9z"/>
<linearGradient id="SVGID_3_" gradientUnits="userSpaceOnUse" x1="15.6095" y1="53.1334" x2="15.6095" y2="8.1334" gradientTransform="matrix(1 0 0 -1 0 60.2668)">
	<stop  offset="0" style="stop-color:#2957FC"/>
	<stop  offset="1" style="stop-color:#AC1FEE"/>
</linearGradient>
<path class="st2" d="M30.8,33l-5.3-7.7c-0.6-0.9-1.5-1.6-2.5-2.1c1.4-1.7,2.3-3.9,2.3-6.3c0-5.4-4.4-9.8-9.8-9.8S5.8,11.5,5.8,17
	c0,3.3,1.7,6.3,4.2,8.1c0.1,1.4,0.7,2.7,1.7,3.7c1.1,1,2.4,1.6,3.9,1.6c3,0,5.4-2.3,5.6-5.3c0.3-0.2,0.7-0.5,1-0.8
	c0.9,0.4,1.8,1,2.4,1.8l3.7,5.4l-1.4,1l-3-3.3c-0.2-0.2-0.5-0.3-0.7-0.2c-0.3,0.1-0.4,0.3-0.4,0.6v6.5c-0.5,0.2-0.9,0.5-1.1,0.8
	c-0.3,0.3-0.5,0.5-0.8,0.5c-0.3,0-0.5-0.2-0.8-0.5c-0.4-0.4-0.8-0.9-1.8-0.9c-0.9,0-1.4,0.5-1.8,0.9c-0.3,0.3-0.5,0.5-0.8,0.5
	c-0.3,0-0.5-0.2-0.8-0.5C14.4,36.6,14,36,13,36c-0.9,0-1.4,0.5-1.8,0.9c-0.3,0.3-0.5,0.5-0.8,0.5c-0.3,0-0.5-0.2-0.8-0.5
	c-0.3-0.3-0.6-0.6-1.1-0.8v-6.5c0-0.3-0.2-0.5-0.4-0.6c-0.3-0.1-0.5,0-0.7,0.2l-3,3.3l-1.4-1l3.7-5.4c0.2-0.3,0.4-0.5,0.6-0.7
	c0.3-0.3,0.3-0.7,0-0.9c-0.3-0.3-0.7-0.3-0.9,0c-0.3,0.3-0.5,0.6-0.8,0.9L0.4,33c-0.6,0.8-0.5,1.9,0.1,2.6C0.9,36,1.4,36.2,2,36.2
	c0.6,0,1.1-0.3,1.5-0.7l3.7-4.2v18.5c0,1.3,1,2.3,2.3,2.3c1,0,1.8-0.6,2.2-1.5l2.8-7.8c0.1-0.3,0.4-0.5,0.7-0.5H16
	c0.3,0,0.6,0.2,0.7,0.5l2.8,7.8c0.3,0.9,1.2,1.5,2.2,1.5c1.3,0,2.3-1,2.3-2.3V31.4l3.7,4.2c0.4,0.4,0.9,0.7,1.5,0.7
	c0.6,0,1.1-0.2,1.5-0.6C31.3,34.9,31.4,33.8,30.8,33z M15.6,29c-1.1,0-2.2-0.4-3-1.2c-0.5-0.5-0.9-1.2-1.1-1.9
	c1.3,0.6,2.6,0.9,4.1,0.9c1.5,0,2.9-0.3,4.1-0.9C19.2,27.7,17.6,29,15.6,29z M15.6,25.5c-4.7,0-8.5-3.8-8.5-8.5c0-3.8,2.5-7,5.9-8.1
	c-0.1,0.3-0.2,0.7-0.2,1.1c0,1.5,1.2,2.8,2.8,2.8c1.1,0,2.1-0.9,2.1-2.1c0-0.4-0.3-0.7-0.7-0.7c-0.4,0-0.7,0.3-0.7,0.7
	c0,0.4-0.3,0.7-0.7,0.7c-0.8,0-1.5-0.7-1.5-1.5c0-0.8,0.7-1.5,1.5-1.5c4.7,0,8.5,3.8,8.5,8.5C24.1,21.6,20.3,25.5,15.6,25.5z
	 M2.5,34.7c-0.1,0.1-0.3,0.2-0.5,0.2c-0.2,0-0.4-0.1-0.5-0.2c-0.2-0.2-0.2-0.6,0-0.9l0.8-1.2l1.2,0.9L2.5,34.7z M10.4,50.2
	c-0.1,0.4-0.5,0.7-0.9,0.7c-0.5,0-1-0.4-1-1v-2.5l2.8,0.5L10.4,50.2z M22.7,49.8c0,0.5-0.4,1-1,1c-0.4,0-0.8-0.3-0.9-0.7l-0.8-2.4
	l2.8-0.5V49.8z M22.7,46l-3.2,0.5L18,42.3C17.7,41.5,16.9,41,16,41h-0.8c-0.9,0-1.7,0.6-1.9,1.4l-1.5,4.2L8.5,46v-8.3
	c0,0,0.1,0.1,0.1,0.2c0.4,0.4,0.8,0.9,1.8,0.9c0.9,0,1.4-0.5,1.8-0.9c0.3-0.3,0.5-0.5,0.8-0.5c0.3,0,0.5,0.2,0.8,0.5
	c0.4,0.4,0.8,0.9,1.8,0.9c0.9,0,1.4-0.5,1.8-0.9c0.3-0.3,0.5-0.5,0.8-0.5c0.3,0,0.5,0.2,0.8,0.5c0.4,0.4,0.8,0.9,1.8,0.9
	c0.9,0,1.4-0.5,1.8-0.9c0.1-0.1,0.1-0.1,0.1-0.2V46z M29.7,34.7c-0.1,0.1-0.3,0.2-0.5,0.2c-0.2,0-0.4-0.1-0.5-0.2l-1-1.1l1.2-0.9
	l0.8,1.2C30,34.1,29.9,34.4,29.7,34.7z"/>
<linearGradient id="SVGID_4_" gradientUnits="userSpaceOnUse" x1="15.6094" y1="41.8608" x2="15.6094" y2="37.0197" gradientTransform="matrix(1 0 0 -1 0 60.2668)">
	<stop  offset="0" style="stop-color:#2957FC"/>
	<stop  offset="1" style="stop-color:#AC1FEE"/>
</linearGradient>
<path class="st3" d="M18.4,18.4h-5.6c-0.4,0-0.7,0.3-0.7,0.7v0.7c0,1.9,1.6,3.5,3.5,3.5s3.5-1.6,3.5-3.5v-0.7
	C19.1,18.7,18.8,18.4,18.4,18.4z M17.8,19.8c0,1.2-1,2.2-2.2,2.2s-2.2-1-2.2-2.2v0L17.8,19.8L17.8,19.8z"/>
<path class="st4" d="M-0.1,10.1c0-5.5,4.4-9.9,9.9-9.9C20.7,0.2,29.5,9,29.5,20v3.1c0,5.7-4.6,10.3-10.3,10.3h-7.5
	c-6.6,0-11.9-5.3-11.9-11.9V10.1z"/>
</svg>
