<svg width="44" height="17" viewBox="0 0 44 17" fill="none" xmlns="http://www.w3.org/2000/svg">
<path d="M44 3.77833L38.2568 17H36.4804L38.6143 12.3732L34.8332 3.77692H36.7018L39.4379 10.3658H39.4737L42.1232 3.77692L44 3.77833ZM20.1392 7.86681V13.2232H18.3339V0.00152434H23.1104C24.2489 -0.0282255 25.3516 0.378355 26.2041 1.14477C27.0497 1.86018 27.5144 2.87167 27.5006 3.94125C27.5144 5.02641 27.0345 6.06624 26.2041 6.74482C25.3736 7.49706 24.3424 7.86681 23.1104 7.86681H20.1392ZM20.1323 1.6321V6.24332H23.1544C23.8199 6.26599 24.4716 6.01524 24.9377 5.56474C25.4038 5.13691 25.661 4.55325 25.661 3.94833C25.661 3.33634 25.4025 2.75267 24.9377 2.33193C24.4579 1.86018 23.813 1.60943 23.1544 1.63068L20.1323 1.6321ZM31.1168 3.77833C32.2621 3.77833 33.1723 4.10983 33.8378 4.76716C34.5032 5.42449 34.8332 6.32407 34.8332 7.46731V12.9342H33.3442V11.7017H33.2795C32.6347 12.7132 31.7822 13.2218 30.7153 13.2218C29.7982 13.2218 29.0392 12.9342 28.4232 12.3505C27.821 11.8051 27.4855 11.0075 27.4993 10.1816C27.4993 9.26647 27.821 8.53689 28.4727 7.99006C29.1176 7.45173 29.9838 7.17831 31.0645 7.17831C31.9885 7.17831 32.7474 7.36248 33.3414 7.72373V7.33981C33.3483 6.77882 33.1118 6.24049 32.7034 5.86366C32.2951 5.47266 31.7575 5.25166 31.1992 5.25874C30.333 5.25874 29.6456 5.64974 29.1368 6.43174L27.7688 5.51657C28.5209 4.35775 29.6373 3.7755 31.1126 3.7755L31.1168 3.77833ZM29.1052 10.2199C29.0983 10.6477 29.2908 11.0458 29.6208 11.305C29.9645 11.5926 30.3949 11.7484 30.8308 11.7399C31.4825 11.7399 32.1122 11.4595 32.5783 10.965C33.0719 10.4933 33.3524 9.82888 33.3524 9.13472C32.8657 8.72105 32.192 8.51422 31.3257 8.51422C30.6878 8.51422 30.1653 8.67714 29.7432 9.00155C29.3211 9.33305 29.1052 9.73255 29.1052 10.2185V10.2199ZM7.48555 0.00152434C9.33348 -0.0211422 11.1237 0.680103 12.4917 1.97209L10.3578 4.12683C9.57684 3.38167 8.54563 2.97509 7.48555 2.99776C5.58125 3.00484 3.89832 4.26 3.28234 6.11157C2.96748 7.04798 2.96748 8.06656 3.28234 9.00438C3.89832 10.856 5.58125 12.1111 7.48555 12.1182C8.49476 12.1182 9.36235 11.8604 10.0347 11.4028C10.8157 10.8715 11.3601 10.0456 11.5238 9.10072H7.48418V6.19374H14.5377C14.6243 6.70232 14.6669 7.21231 14.6669 7.72798C14.6669 10.03 13.8502 11.9779 12.4395 13.2912C11.2007 14.4429 9.50397 15.113 7.48418 15.113C4.66966 15.1272 2.09164 13.5193 0.795063 10.9509C-0.265021 8.8188 -0.265021 6.29573 0.795063 4.16225C2.09164 1.59385 4.66966 -0.0140581 7.47593 0.000108462L7.48555 0.00152434Z" fill="black"/>
</svg>
