<svg width="17" height="15" viewBox="0 0 17 15" fill="none" xmlns="http://www.w3.org/2000/svg">
<path d="M16.0423 0.676025H0.957747C0.42907 0.676025 0 1.1051 0 1.63377V13.3662C0 13.8948 0.42907 14.3239 0.957747 14.3239H16.0423C16.5709 14.3239 17 13.8948 17 13.3662V1.63377C17 1.1051 16.5709 0.676025 16.0423 0.676025ZM15.0845 2.59152V11.2285L12.8941 8.56881C12.8132 8.4716 12.671 8.45388 12.568 8.52763L10.0199 10.3881L5.644 6.13135C5.5942 6.08155 5.52285 6.06095 5.45437 6.06383C5.38445 6.07053 5.32076 6.10788 5.28054 6.16535L1.91549 10.9795V2.59152H15.0845ZM9.33803 6.18307C9.33803 5.32493 10.0362 4.62673 10.8944 4.62673C11.7525 4.62673 12.4507 5.32493 12.4507 6.18307C12.4507 7.04121 11.7525 7.73941 10.8944 7.73941C10.0362 7.73941 9.33803 7.04121 9.33803 6.18307Z" fill="#6B6B6B"/>
</svg>
