<svg width="25" height="19" viewBox="0 0 25 19" fill="none" xmlns="http://www.w3.org/2000/svg">
<path d="M4.52787 18.9579V17.6955C4.52787 17.2114 4.22736 16.8959 3.7341 16.8959C3.47504 16.8959 3.19785 16.9802 3.00459 17.2515C2.85433 17.0198 2.6419 16.8959 2.31807 16.8959C2.19767 16.8908 2.07786 16.915 1.96936 16.9664C1.86085 17.0179 1.76704 17.0949 1.69632 17.1905V16.9365H1.28856V18.9564H1.69632V17.8007C1.69632 17.4451 1.91083 17.2749 2.21134 17.2749C2.51185 17.2749 2.68335 17.4644 2.68335 17.8007V18.9579H3.09111V17.8007C3.09111 17.4451 3.30562 17.2749 3.60613 17.2749C3.90664 17.2749 4.07814 17.4644 4.07814 17.8007V18.9579H4.52787ZM11.2231 16.9589H10.4718V16.3493H10.0651V16.9589H9.63605V17.3145H10.0651V18.2635C10.0651 18.7263 10.2366 19.0001 10.7516 19.0001C10.9467 18.9961 11.1379 18.9456 11.3086 18.8528L11.1795 18.4972C11.0638 18.5681 10.9295 18.6046 10.793 18.6023C10.5785 18.6023 10.4713 18.4758 10.4713 18.2655V17.2982H11.2225V16.9614L11.2231 16.9589ZM15.0427 16.8959C14.9316 16.8935 14.8218 16.9193 14.724 16.971C14.6262 17.0226 14.5437 17.0983 14.4847 17.1905V16.9365H14.0769V18.9564H14.4847V17.822C14.4847 17.4852 14.6562 17.2749 14.9354 17.2749C15.0297 17.2786 15.1232 17.2928 15.2142 17.317L15.3432 16.9381C15.2448 16.9137 15.1441 16.8996 15.0427 16.8959ZM9.27026 17.1062C9.05576 16.9589 8.75524 16.8959 8.43349 16.8959C7.91847 16.8959 7.59672 17.1275 7.59672 17.5274C7.59672 17.8642 7.83298 18.0532 8.28323 18.1167L8.49774 18.1375C8.734 18.1797 8.88426 18.264 8.88426 18.3691C8.88426 18.5165 8.71276 18.6232 8.39048 18.6232C8.14441 18.6281 7.90339 18.5543 7.70397 18.4128L7.48947 18.7283C7.78998 18.9386 8.15474 18.9823 8.37028 18.9823C8.9713 18.9823 9.29306 18.709 9.29306 18.33C9.29306 17.9744 9.03399 17.8042 8.58478 17.7407L8.37028 17.7199C8.17702 17.6991 8.00759 17.6356 8.00759 17.5096C8.00759 17.3623 8.17909 17.2556 8.41535 17.2556C8.67442 17.2556 8.93037 17.3607 9.05938 17.4237L9.27026 17.1062ZM15.4934 17.948C15.4934 18.5576 15.9012 19.0001 16.5665 19.0001C16.867 19.0001 17.0815 18.9371 17.296 18.7685L17.0815 18.453C16.9296 18.5736 16.7407 18.6403 16.5452 18.6425C16.1826 18.6425 15.9012 18.3691 15.9012 17.9693C15.9012 17.5695 16.1789 17.2982 16.5452 17.2982C16.7407 17.3004 16.9296 17.3671 17.0815 17.4877L17.296 17.1722C17.0815 17.0041 16.867 16.9406 16.5665 16.9406C15.9225 16.8984 15.4934 17.3404 15.4934 17.9505V17.948ZM12.6179 16.8959C12.0168 16.8959 11.6091 17.3165 11.6091 17.948C11.6091 18.5795 12.0381 19.0001 12.6603 19.0001C12.9631 19.0064 13.2587 18.9098 13.4971 18.7268L13.2826 18.4321C13.1102 18.5631 12.8996 18.6368 12.6816 18.6425C12.4028 18.6425 12.1023 18.4743 12.0598 18.1167H13.5836V17.9485C13.5836 17.317 13.1971 16.8964 12.6179 16.8964V16.8959ZM12.5966 17.2749C12.8971 17.2749 13.1116 17.4644 13.1329 17.7798H12.0174C12.0816 17.4852 12.2764 17.2749 12.5966 17.2749ZM7.0387 17.948V16.9381H6.63094V17.1921C6.48068 17.0026 6.26825 16.8974 5.96566 16.8974C5.3864 16.8974 4.95688 17.3394 4.95688 17.9495C4.95688 18.5597 5.38588 19.0016 5.96566 19.0016C6.26618 19.0016 6.48068 18.8965 6.63094 18.707V18.961H7.0387V17.948ZM5.3864 17.948C5.3864 17.569 5.62267 17.2749 6.03043 17.2749C6.41695 17.2749 6.65218 17.5695 6.65218 17.948C6.65218 18.3478 6.39312 18.6211 6.03043 18.6211C5.62267 18.642 5.3864 18.3265 5.3864 17.948ZM21.2451 16.8959C21.1341 16.8935 21.0243 16.9193 20.9265 16.971C20.8286 17.0226 20.7462 17.0983 20.6871 17.1905V16.9365H20.2794V18.9564H20.6866V17.822C20.6866 17.4852 20.8581 17.2749 21.1374 17.2749C21.2316 17.2786 21.3251 17.2928 21.4161 17.317L21.5451 16.9381C21.4467 16.9137 21.346 16.8996 21.2446 16.8959H21.2451ZM19.6571 17.948V16.9381H19.2493V17.1921C19.0991 17.0026 18.8866 16.8974 18.5841 16.8974C18.0048 16.8974 17.5753 17.3394 17.5753 17.9495C17.5753 18.5597 18.0043 19.0016 18.5841 19.0016C18.8846 19.0016 19.0991 18.8965 19.2493 18.707V18.961H19.6571V17.948ZM18.0048 17.948C18.0048 17.569 18.2411 17.2749 18.6488 17.2749C19.0353 17.2749 19.2706 17.5695 19.2706 17.948C19.2706 18.3478 19.0115 18.6211 18.6488 18.6211C18.2411 18.642 18.0048 18.3265 18.0048 17.948ZM23.799 17.948V16.1384H23.3912V17.1905C23.241 17.001 23.0285 16.8959 22.7259 16.8959C22.1467 16.8959 21.7172 17.3379 21.7172 17.948C21.7172 18.5581 22.1462 19.0001 22.7259 19.0001C23.0264 19.0001 23.241 18.895 23.3912 18.7055V18.9595H23.799V17.948ZM22.1467 17.948C22.1467 17.569 22.3829 17.2749 22.7907 17.2749C23.1772 17.2749 23.4125 17.5695 23.4125 17.948C23.4125 18.3478 23.1534 18.6211 22.7907 18.6211C22.3824 18.6425 22.1462 18.327 22.1462 17.948H22.1467Z" fill="black"/>
<path d="M16.2447 1.61987H8.79826V13.5289H16.2447V1.61987Z" fill="#FF5F00"/>
<path d="M9.54908 7.5746C9.54934 6.42895 9.81393 5.29819 10.323 4.267C10.8322 3.23582 11.5726 2.33093 12.4889 1.62008C11.3493 0.74157 9.98065 0.19517 8.53932 0.0433418C7.09798 -0.108486 5.64216 0.140386 4.33827 0.761509C3.03438 1.38263 1.93503 2.35094 1.1659 3.55575C0.396769 4.76055 -0.0111084 6.15324 -0.0111084 7.5746C-0.0111084 8.99597 0.396769 10.3887 1.1659 11.5935C1.93503 12.7983 3.03438 13.7666 4.33827 14.3877C5.64216 15.0088 7.09798 15.2577 8.53932 15.1059C9.98065 14.954 11.3493 14.4076 12.4889 13.5291C11.5726 12.8183 10.8322 11.9134 10.323 10.8822C9.81393 9.85101 9.54934 8.72026 9.54908 7.5746Z" fill="#EB001B"/>
<path d="M25.0005 7.57466C25.0016 8.99499 24.5949 10.3869 23.827 11.5913C23.0591 12.7957 21.9611 13.7638 20.6584 14.385C19.3557 15.0062 17.901 15.2554 16.4607 15.104C15.0204 14.9527 13.6526 14.4069 12.5137 13.5292C13.4303 12.8185 14.1709 11.9137 14.68 10.8824C15.1891 9.85122 15.4536 8.72037 15.4536 7.57466C15.4536 6.42896 15.1891 5.29811 14.68 4.26688C14.1709 3.23566 13.4303 2.3308 12.5137 1.62014C13.6526 0.742391 15.0204 0.19663 16.4607 0.0452836C17.901 -0.106063 19.3557 0.143115 20.6584 0.764318C21.9611 1.38552 23.0591 2.35367 23.827 3.55803C24.5949 4.76239 25.0016 6.15433 25.0005 7.57466Z" fill="#F79E1B"/>
</svg>
