<?xml version="1.0" encoding="utf-8"?>
<!-- Generator: Adobe Illustrator 22.1.0, SVG Export Plug-In . SVG Version: 6.00 Build 0)  -->
<svg version="1.1" id="Слой_1" width="35px" height="50" xmlns="http://www.w3.org/2000/svg" xmlns:xlink="http://www.w3.org/1999/xlink" x="0px" y="0px"
	 viewBox="0 0 35 52.2" style="enable-background:new 0 0 35 52.2;" xml:space="preserve">
<style type="text/css">
	.st0{fill:url(#SVGID_1_);}
	.st1{fill:url(#SVGID_2_);}
	.st2{fill:#2957FC;fill-opacity:0.1;}
</style>
<linearGradient id="SVGID_1_" gradientUnits="userSpaceOnUse" x1="17.5851" y1="53.1875" x2="17.5851" y2="11.1169" gradientTransform="matrix(1 0 0 -1 0 62.375)">
	<stop  offset="0" style="stop-color:#4369FD"/>
	<stop  offset="1" style="stop-color:#AC1FEE"/>
</linearGradient>
<path class="st0" d="M31.5,9.4c-4.2-1.5-8.4,3.6-9.5,7.4c-2.3-1.4-4.5,0.2-5.9,2.1c-0.2,0.2-0.1,0.6,0.1,0.8
	c0.1,0.1,0.3,0.2,0.4,0.3c-0.9,1.3-1.8,2.5-2.8,3.8c0,0,0,0,0,0.1c-1.6-0.1-3.2-0.3-4.8-0.3c-2.3,0-6.6-0.1-7.6,2.5
	c0,0.1,0,0.1,0,0.2c-0.5,1.1-0.4,2.5,0.7,3.3c-2.8,4.2-2.3,8.3,0.1,11.6c-0.3,2.5-0.9,5.4,0.2,7.8c1.7,3.7,10.1,2.1,13,1.8
	c2.7-0.2,5.2-0.1,7.9,0.1c2.2,0.2,4.1-0.2,5.4-2.1c0.5-0.7,0.5-1.9,0.5-2.8c0.1-1.7,0.3-3.3,0.5-4.9c2.8-2.9,4-6.4,0.8-9.9
	c1-0.3,1.8-0.8,2-1.8c0.1-0.1,0.1-0.2,0.1-0.3c0.1-0.4,0-0.8,0-1.2c-0.3-1.4-1.2-2.2-2.4-2.8c-0.2-1-0.3-2-0.8-2.9c0,0,0,0,0-0.1
	c0.1,0,0.2,0,0.3-0.1c2.2-1.6,4.6-3.5,5.3-6.3C35.5,13.4,33.7,10.2,31.5,9.4z M17.4,20.6c1.6,1.3,3.4,2.4,5,3.6c-0.4,0-0.7,0-1,0
	c-0.5,0-1,0-1.5,0c-0.1-0.1-0.2-0.1-0.2-0.2c-0.1-0.1-0.3,0-0.4,0.1c-1.3,0-2.6-0.1-3.9-0.2C16.1,22.9,16.8,21.7,17.4,20.6z
	 M15.7,25.1c0.4,0,0.8,0.1,1.2,0.1c0.9,1.3,2.6,2.3,3.8,3.1c1.8,1.1,3.8,2.5,5.9,3c0.3,0.1,0.5-0.3,0.3-0.5
	c-1.4-1.1-3.2-1.8-4.8-2.6c-1.6-0.8-3-1.8-4.3-2.9c0.8,0.1,1.7,0.1,2.5,0.1c2.3,2,4.9,4,7.6,5.2c-0.6,0.5-1,1.1-1.2,1.8
	c-1.6-1.4-3.8-2.2-5.6-3.2c-2.3-1.2-4.6-2.5-6.5-4.2C15,25,15.4,25.1,15.7,25.1z M13.7,24.9c1.6,1.8,3.6,3.1,5.7,4.3
	c2.3,1.3,4.8,2.9,7.3,3.9c0,0.2-0.1,0.5-0.1,0.7c-5.1-3.4-10.8-5.9-16.1-9.2C11.6,24.6,12.7,24.8,13.7,24.9z M23.2,37.2
	c0.6,0.2,1.1,0.5,1.6,0.9c0.5,0.3,0.9,0.8,1.4,1c0.1,0,0.1,0,0.2,0c0,0.2,0,0.4,0,0.7c0,0.3-0.1,0.7-0.1,1c0,0.1,0,0.1,0,0.2
	c-0.4-0.5-1-0.8-1.5-1.1c-0.7-0.4-1.4-0.9-2.1-1.5c0.1-0.3,0.2-0.7,0.2-1c0.2-0.8,0.3-1.6,0.3-2.4c0.3,0.2,0.6,0.4,0.9,0.6
	c0.7,0.5,1.4,1,2.2,1.4c0.1,0,0.2,0,0.3,0c0,0.6,0,1.2,0,1.7c-0.3-0.4-0.9-0.7-1.3-1c-0.5-0.4-1.1-0.6-1.7-0.8
	C23,36.6,22.9,37.1,23.2,37.2z M3.7,30c1.5,0.1,3.1-0.2,3,1.9c0,0.8-0.2,2.4,0.4,3.1c1.4,1.6,3.1,0.9,3.6-0.8c0.1,0,0.1-0.2,0.1-0.3
	c0,0,0-0.1,0-0.1c0.5-0.2,1-0.4,1.5-0.6c0,0.5,0.1,0.9,0.1,1.4c0,0.7,0.1,1.4,0.3,2.1c0.4,1.4,1.3,2.4,2.6,2.9
	c1.2,0.4,2.1-0.4,2.8-1.4c0.2,0,0.3-0.2,0.2-0.4c0.6-1.1,1-2.4,1.2-3.1c0.1-0.4,0.7-3.1,1.6-1.8c1.3,1.8,0.3,4.3-0.1,6.2
	c0,0.2-0.1,0.5-0.1,0.7c0,0,0,0,0,0.1c-0.1,1.1-0.1,2.5,0.5,3.3c0.3,0.5,0.7,0.8,1,1.1c-1.8,0.9-3.6,1.5-5,1.8
	c-4.5,1-9.6-0.8-13-3.8c-0.4-0.4-0.8-0.8-1.1-1.2C3.7,37.3,4,33.7,3.7,30z M9.6,33.7c-0.4,1-1.6-0.1-1.7-1c0,0,0-0.1,0-0.1
	C8.5,33,9,33.4,9.6,33.7z M7.9,32.1c0.1-0.3,0.2-0.7,0.2-1c0.3,0.2,0.5,0.5,0.8,0.7c0.3,0.2,0.7,0.5,1,0.8c-0.1,0.2-0.1,0.4-0.2,0.6
	C9.2,32.8,8.6,32.4,7.9,32.1C8,32.1,8,32.1,7.9,32.1z M15.8,36.1c-0.7-0.4-1.4-0.8-2.2-1.1c0-0.5,0-0.9-0.1-1.4
	c0.5,0.3,0.9,0.6,1.4,0.8c0.8,0.5,1.7,1.1,2.6,1.3c0.2,0,0.4-0.2,0.2-0.4c-0.6-0.7-1.7-1-2.6-1.4c-0.6-0.3-1.2-0.6-1.7-0.9
	c0-0.2-0.1-0.4-0.1-0.5c-0.1-0.2-0.1-0.4-0.2-0.6c1.7,1,3.5,1.9,5.2,2.7c-0.2,0.8-0.6,1.7-1,2.5C16.9,36.7,16.3,36.4,15.8,36.1z
	 M17.1,37.6c-0.7,0.9-1.6,1.2-2.8-0.4c-0.4-0.6-0.6-1.2-0.7-1.9c0.5,0.4,1.1,0.8,1.7,1.1C15.9,36.8,16.5,37.2,17.1,37.6z M22.4,41.8
	c-0.1-0.3-0.2-0.5-0.2-0.8c0.8,0.7,1.8,1.3,2.8,1.6C24.4,42.8,23.5,42.5,22.4,41.8z M22.2,40.2c0-0.4,0.1-0.9,0.2-1.3
	c0.5,0.4,0.9,0.8,1.4,1.1c0.6,0.4,1.4,1.1,2.1,1.3c0,0,0.1,0,0.1,0c-0.1,0.4-0.3,0.8-0.5,1c0,0,0-0.1-0.1-0.1
	C24.3,41.5,23.2,41,22.2,40.2z M23,34.2c-0.1-0.6-0.2-1.1-0.5-1.7c1.3,0.7,2.6,1.4,3.9,2.1c0,0.1,0,0.1,0,0.2c0,0.5-0.1,1-0.1,1.4
	C25.4,35.5,24.1,34.9,23,34.2z M9.5,24.5c3.3,2.5,6.9,4.7,10.5,6.7c-0.3,0.3-0.6,0.7-0.8,1.2c-3.6-3.1-7.9-5.4-11.9-7.9
	C8.1,24.5,8.8,24.5,9.5,24.5z M6.7,24.6c3.9,2.9,8,6,12.3,8.5c-0.1,0.2-0.1,0.4-0.2,0.5c0,0,0,0.1-0.1,0.2c-2.3-1.4-4.8-2.6-7.2-3.9
	c-2.5-1.5-4.7-3.2-7.1-4.8C5.1,24.8,5.9,24.7,6.7,24.6z M4,25.1c1.3,1.7,3.4,3.1,5.3,4.3c-2.2-1.3-4.4-2.5-6.6-3.6
	C3.1,25.5,3.6,25.3,4,25.1z M2.3,26.1C2.3,26.1,2.4,26.1,2.3,26.1c3,1.7,5.9,3.5,8.9,5.2c0,0-0.1,0-0.1,0.1
	c-0.3,0.2-0.6,0.4-0.8,0.6c-0.2-0.1-0.5-0.3-0.7-0.4c-0.5-0.3-1-0.6-1.4-1c0-0.7-0.6-1.3-1.2-1.7c-0.3-0.2-1-0.2-1.8-0.2
	c0-0.1,0-0.2-0.1-0.2c-1.1-0.4-2.3-1-3.1-1.8C2.1,26.6,2.1,26.4,2.3,26.1z M2.3,39c-1.2-2.9-0.6-6.1,0.6-9.1c0,0,0.1,0,0.1,0
	C2.8,32.9,2.6,36,2.3,39z M2.9,28.4c-0.6-0.2-1.1-0.6-1-1.3C2.2,27.5,2.6,27.8,3,28c0.3,0.2,0.7,0.5,1.1,0.7c-0.3,0-0.6-0.1-0.9-0.1
	C3.2,28.5,3,28.4,2.9,28.4z M27.6,46c-0.1,4.6-9.5,2.9-13.1,3.2c-2,0.2-4.1,0.3-6.1,0.3c-3.1,0-5.1-0.7-5.1-4.2c0-0.9,0-1.8,0-2.7
	c3.4,3.6,9,5.7,14.1,4.8c3-0.5,7.3-2.3,10.5-4.8C27.8,43.7,27.7,44.9,27.6,46z M28.3,40.5c-0.4,0.3-0.8,0.7-1.2,1
	c0.4-1.9,0.1-4.3,0.2-6.4c0.3,0,0.5-0.5,0.2-0.7c0,0-0.1,0-0.1-0.1c0.1-1.2,0.5-2.3,1.4-2.9C29.4,34.4,28.9,37.5,28.3,40.5z
	 M29.5,30.1c-0.2,0-0.4,0-0.5,0.1c0,0,0,0-0.1,0c-0.1-0.1-0.2-0.1-0.3-0.1c0-0.1-0.1-0.2-0.1-0.3c-2.3-1.6-4.7-3-7-4.6
	c0.6,0,1.3,0,1.9,0c2.5,1.1,4.4,3.2,6.8,4.4C30,29.9,29.8,30,29.5,30.1z M30.5,33.5c0.8,1.7,0.6,3.4-0.4,4.9
	C30.3,36.8,30.5,35.1,30.5,33.5z M31.1,27.9c-0.4-0.2-0.8-0.4-1.2-0.7c-1-0.6-2.1-1.2-3.2-1.8c-0.4-0.2-0.7,0.4-0.3,0.5
	c1,0.5,1.9,1.1,2.8,1.7c0.6,0.4,1.2,0.8,1.8,1.2c0,0.1-0.1,0.2-0.1,0.2c-1.2-0.8-2.4-1.6-3.6-2.4c-0.8-0.5-1.6-1-2.5-1.4
	c0.4,0,0.8,0,1.1,0c1,0.1,2,0.2,3,0.6C30.4,26.4,31,27.1,31.1,27.9z M33.5,15.9c-0.6,2.2-3,3.8-4.7,5.2c-0.3,0.2-0.2,0.6,0,0.8
	c-0.3,0-0.6,0.3-0.5,0.7c0.1,0.5,0.4,1.1,0.5,1.6c0.1,0.2,0.1,0.4,0.2,0.5c-1.8-0.5-3.9-0.6-5.7-0.5c-1.4-1.9-3.6-3.2-5.5-4.7
	c0,0,0-0.1,0-0.1c0.1-0.2-0.1-0.4-0.2-0.4c0.4-0.4,0.8-0.9,1.3-1.2c0.9-0.5,1.9-0.1,2.8,0.1c0.1,0,0.2,0,0.3-0.1
	c0.1,0,0.2,0,0.2-0.1c1.5-2.9,3.9-6.3,7.2-7.1C32.3,9.9,34.1,13.7,33.5,15.9z"/>
<linearGradient id="SVGID_2_" gradientUnits="userSpaceOnUse" x1="29.8646" y1="50.4473" x2="29.8646" y2="45.2007" gradientTransform="matrix(1 0 0 -1 0 62.375)">
	<stop  offset="0" style="stop-color:#4369FD"/>
	<stop  offset="1" style="stop-color:#AC1FEE"/>
</linearGradient>
<path class="st1" d="M30.9,12.2c-1.3-0.6-3.5-0.3-3.6,1.4c0,0.2,0.1,0.3,0.2,0.4c-0.3,0.8-0.2,1.7,0.4,2.4c1.3,1.5,3.3,0.5,4.3-0.8
	C33,14.3,32.1,12.8,30.9,12.2z M31.1,14.9c-0.4,0.8-1.6,1.5-2.3,0.8c-0.7-0.6-0.4-1.6,0-2.4c0.1,0,0.1-0.1,0.2-0.1
	c0.4-0.1,0.8-0.1,1.2,0C30.8,13.5,31.5,14.1,31.1,14.9z"/>
<path class="st2" d="M0.1,10.3c0-5.6,4.3-10.2,9.7-10.2c10.7,0,19.3,9.1,19.3,20.3v3.2c0,5.9-4.5,10.6-10.1,10.6h-7.3
	c-6.4,0-11.6-5.5-11.6-12.2V10.3z"/>
</svg>
