<svg width="17" height="17" viewBox="0 0 17 17" fill="none" xmlns="http://www.w3.org/2000/svg">
<g clip-path="url(#clip0)">
<path d="M16.2984 0H11.8183C11.4391 0 11.1316 0.30746 11.1316 0.686706C11.1316 1.06595 11.439 1.37341 11.8183 1.37341H15.6117V5.16676C15.6117 5.54601 15.9191 5.85347 16.2984 5.85347C16.6777 5.85347 16.9851 5.54601 16.9851 5.16676V0.686706C16.9851 0.30746 16.6777 0 16.2984 0Z" fill="#282B36"/>
<path d="M16.784 0.201136C16.5158 -0.0670453 16.081 -0.0670453 15.8128 0.201136L10.5861 5.42786C10.3179 5.69604 10.3179 6.13084 10.5861 6.39902C10.7202 6.53309 10.8959 6.60016 11.0717 6.60016C11.2474 6.60016 11.4232 6.53313 11.5573 6.39902L16.784 1.17229C17.0521 0.904111 17.0521 0.469317 16.784 0.201136Z" fill="#282B36"/>
<path d="M14.3633 10.3781C14.3613 10.3778 14.3592 10.3775 14.3572 10.3772C13.6927 10.2896 13.0373 10.1263 12.4108 9.89261C11.617 9.59411 10.7141 9.78666 10.1109 10.3831C10.1099 10.384 10.109 10.3849 10.1081 10.3858L9.53874 10.9552C8.12319 10.0612 6.9238 8.86182 6.02984 7.4463L6.59924 6.8769C6.60014 6.87598 6.60103 6.87508 6.60196 6.87415C7.19842 6.27098 7.39093 5.36816 7.09304 4.57573C6.85872 3.9477 6.69546 3.29233 6.60781 2.62784C6.60757 2.62575 6.60724 2.62362 6.60694 2.62153C6.45451 1.54316 5.51848 0.737757 4.43055 0.746655H2.19319C2.12868 0.746721 2.0633 0.749677 1.99886 0.75552C0.801621 0.863696 -0.0843698 1.9257 0.0238389 3.12293C0.024171 3.12652 0.024503 3.13007 0.0249014 3.13366C0.280034 5.53607 1.10895 7.87771 2.4221 9.90562C3.61382 11.7803 5.23446 13.4009 7.10911 14.5927C9.12759 15.9011 11.4584 16.73 13.8498 16.9899C13.854 16.9904 13.8582 16.9908 13.8624 16.9912C13.9276 16.997 13.9936 17 14.059 17C14.0618 17 14.0645 17 14.0672 17C15.2693 16.9951 16.2433 16.0132 16.2385 14.8139V12.5816C16.2611 11.4787 15.4566 10.5323 14.3633 10.3781ZM14.865 12.5738V14.8166C14.8668 15.2614 14.5064 15.6247 14.0618 15.6265C14.0381 15.6264 14.0145 15.6256 13.9909 15.6237C11.8135 15.3859 9.69154 14.6305 7.85378 13.4387C7.85202 13.4376 7.85023 13.4364 7.84844 13.4353C6.14084 12.3502 4.66473 10.8741 3.57969 9.16656C3.57862 9.16486 3.57756 9.1632 3.57647 9.16148C2.38016 7.31479 1.62462 5.18252 1.39131 2.99464C1.35402 2.5536 1.6811 2.16326 2.12247 2.12335C2.14628 2.12123 2.17038 2.1201 2.19369 2.1201H4.4337C4.43855 2.12007 4.44346 2.12 4.44841 2.12003C4.84755 2.12003 5.18957 2.41571 5.24675 2.81129C5.34802 3.57705 5.53631 4.33219 5.80692 5.05744C5.91712 5.35069 5.84639 5.68395 5.62672 5.90714L4.67984 6.85403C4.46126 7.07257 4.41567 7.41028 4.56847 7.67903C5.69197 9.65487 7.33021 11.2931 9.30605 12.4166C9.5748 12.5693 9.91247 12.5239 10.1311 12.3052L11.0778 11.3585C11.3009 11.1387 11.6344 11.0679 11.9292 11.1787C12.653 11.4488 13.4083 11.6371 14.1741 11.7384C14.5785 11.7967 14.8754 12.1481 14.8652 12.5567C14.865 12.5624 14.865 12.5681 14.865 12.5738Z" fill="#282B36"/>
</g>
<defs>
<clipPath id="clip0">
<rect width="17" height="17" fill="white"/>
</clipPath>
</defs>
</svg>
