<svg width="16" height="16" viewBox="0 0 16 16" fill="none" xmlns="http://www.w3.org/2000/svg">
<path d="M15.1626 10.9203L13.5529 9.6015C12.5042 8.74235 10.8762 8.82365 9.91953 9.78032L9.85563 9.84422C9.69521 10.0046 9.43389 10.0034 9.27573 9.84518L6.16561 6.73505C6.00859 6.57804 6.00549 6.32551 6.15679 6.16516C6.15955 6.16225 6.16235 6.15937 6.16518 6.1565L6.15664 6.16505C6.15947 6.16221 6.16231 6.15934 6.16515 6.1565C7.11656 5.19596 7.2076 3.56053 6.37417 2.50684L5.0686 0.856271C4.22942 -0.204702 2.77093 -0.286657 1.81434 0.669936L1.57453 0.909745C-0.124568 2.60884 -0.524954 5.67124 0.749533 7.70736C0.749533 7.70736 1.49978 9.44729 4.03166 11.9792C6.56354 14.511 8.30346 15.2613 8.30346 15.2613C10.3586 16.5047 13.401 16.1364 15.0997 14.4377L15.3281 14.2093C16.2854 13.252 16.2106 11.7789 15.1626 10.9203ZM14.1715 13.0528L13.9431 13.2812C12.7769 14.4474 10.5614 14.7159 9.15008 13.862L9.05406 13.8038L8.95102 13.7594C8.82452 13.7049 8.50743 13.5329 8.02804 13.2114C7.17663 12.6403 6.22054 11.8551 5.18812 10.8227C4.1557 9.79029 3.37046 8.83419 2.79942 7.98278C2.47788 7.5034 2.30592 7.18631 2.25141 7.05981L2.20204 6.94531L2.13588 6.83963C1.2778 5.46877 1.55444 3.24287 2.73103 2.06628L2.97084 1.82647C3.23675 1.56056 3.55469 1.57865 3.78591 1.87098L5.09148 3.52155C5.4134 3.92852 5.37173 4.63707 5.00021 5.00863C4.20987 5.80821 4.21378 7.0963 5.00914 7.89163L8.11927 11.0018C8.91656 11.799 10.2135 11.7995 11.0122 11.0008L11.0761 10.9369C11.4387 10.5743 12.1185 10.5407 12.5164 10.8667L14.1261 12.1855C14.4267 12.4317 14.4443 12.7801 14.1715 13.0528Z" fill="#2957FC"/>
</svg>
