<svg width="17" height="17" viewBox="0 0 17 17" fill="none" xmlns="http://www.w3.org/2000/svg">
<path d="M15.9364 0H1.06359C0.4766 0 0 0.4766 0 1.06283V15.9372C0 16.5242 0.4766 16.9992 1.06359 16.9992H15.9364C16.5234 16.9992 17 16.5242 17 15.9372V1.06283C17 0.4766 16.5234 0 15.9364 0ZM15.3304 14.4762C15.3304 14.9474 14.9482 15.3296 14.4777 15.3296H2.52613C2.05105 15.3296 1.66962 14.9474 1.66962 14.4762V2.52461C1.66962 2.05258 2.05182 1.66962 2.52613 1.66962H14.4777C14.9482 1.66962 15.3304 2.05182 15.3304 2.52461V14.4762Z" fill="#00A046"/>
<path d="M14.2218 5.6354L13.098 4.51318L7.32628 10.2849L5.14199 8.09986L4.01978 9.22284L7.30649 12.5103L7.32628 12.489L7.3476 12.5103L14.2218 5.6354Z" fill="#00A046"/>
</svg>
