<svg width="43" height="14" viewBox="0 0 43 14" fill="none" xmlns="http://www.w3.org/2000/svg">
<path d="M15.8563 13.1875L18.0063 0.8125H21.3656L19.2828 13.1875H15.8563Z" fill="#3C58BF"/>
<path d="M15.8563 13.1875L18.6109 0.8125H21.3656L19.2828 13.1875H15.8563Z" fill="#293688"/>
<path d="M31.4437 0.949903C30.7719 0.674903 29.6969 0.399902 28.3531 0.399902C24.9937 0.399902 22.575 2.11865 22.575 4.59365C22.575 6.4499 24.2547 7.4124 25.5984 8.03115C26.9422 8.6499 27.3453 9.0624 27.3453 9.6124C27.3453 10.4374 26.2703 10.8499 25.3297 10.8499C23.9859 10.8499 23.2469 10.6437 22.1047 10.1624L21.6344 9.95615L21.1641 12.7749C21.9703 13.1187 23.4484 13.4624 24.9937 13.4624C28.5547 13.4624 30.9062 11.7437 30.9062 9.13115C30.9062 7.6874 30.0328 6.5874 28.0172 5.69365C26.8078 5.0749 26.0687 4.73115 26.0687 4.1124C26.0687 3.5624 26.6734 3.0124 28.0172 3.0124C29.1594 3.0124 29.9656 3.21865 30.5703 3.49365L30.9062 3.63115L31.4437 0.949903Z" fill="#3C58BF"/>
<path d="M31.4437 0.949903C30.7719 0.674903 29.6969 0.399902 28.3531 0.399902C24.9937 0.399902 23.1797 2.11865 23.1797 4.59365C23.1797 6.4499 24.2547 7.4124 25.5984 8.03115C26.9422 8.6499 27.3453 9.0624 27.3453 9.6124C27.3453 10.4374 26.2703 10.8499 25.3297 10.8499C23.9859 10.8499 23.2469 10.6437 22.1047 10.1624L21.6344 9.95615L21.1641 12.7749C21.9703 13.1187 23.4484 13.4624 24.9937 13.4624C28.5547 13.4624 30.9062 11.7437 30.9062 9.13115C30.9062 7.6874 30.0328 6.5874 28.0172 5.69365C26.8078 5.0749 26.0687 4.73115 26.0687 4.1124C26.0687 3.5624 26.6734 3.0124 28.0172 3.0124C29.1594 3.0124 29.9656 3.21865 30.5703 3.49365L30.9062 3.63115L31.4437 0.949903Z" fill="#293688"/>
<path d="M37.2219 0.8125C36.4156 0.8125 35.8109 0.881249 35.475 1.70625L30.4359 13.1875H34.0641L34.7359 11.125H39.0359L39.4391 13.1875H42.6641L39.8422 0.8125H37.2219ZM35.6766 9.0625C35.8781 8.44375 37.0203 5.41875 37.0203 5.41875C37.0203 5.41875 37.2891 4.6625 37.4906 4.18125L37.6922 5.35C37.6922 5.35 38.3641 8.44375 38.4984 9.13125H35.6766V9.0625Z" fill="#3C58BF"/>
<path d="M38.0281 0.8125C37.2219 0.8125 36.6172 0.881249 36.2813 1.70625L30.4359 13.1875H34.0641L34.7359 11.125H39.0359L39.4391 13.1875H42.6641L39.8422 0.8125H38.0281ZM35.6766 9.0625C35.9453 8.375 37.0203 5.41875 37.0203 5.41875C37.0203 5.41875 37.2891 4.6625 37.4906 4.18125L37.6922 5.35C37.6922 5.35 38.3641 8.44375 38.4984 9.13125H35.6766V9.0625Z" fill="#293688"/>
<path d="M9.675 9.47485L9.33906 7.68735C8.73438 5.62485 6.78594 3.3561 4.63594 2.2561L7.65938 13.2561H11.2875L16.7297 0.881104H13.1016L9.675 9.47485Z" fill="#3C58BF"/>
<path d="M9.675 9.47485L9.33906 7.68735C8.73438 5.62485 6.78594 3.3561 4.63594 2.2561L7.65938 13.2561H11.2875L16.7297 0.881104H13.7734L9.675 9.47485Z" fill="#293688"/>
<path d="M0.335938 0.8125L0.940625 0.950001C5.24063 1.98125 8.19688 4.59375 9.33906 7.6875L8.12969 1.84375C7.92813 1.01875 7.32344 0.8125 6.58438 0.8125H0.335938Z" fill="#FFBC00"/>
<path d="M0.335938 0.8125C4.63594 1.84375 8.19688 4.525 9.33906 7.61875L8.19688 2.7375C7.99531 1.9125 7.32344 1.43125 6.58438 1.43125L0.335938 0.8125Z" fill="#F7981D"/>
<path d="M0.335938 0.8125C4.63594 1.84375 8.19688 4.525 9.33906 7.61875L8.53281 4.9375C8.33125 4.1125 8.0625 3.2875 7.12188 2.94375L0.335938 0.8125Z" fill="#ED7C00"/>
<path d="M13.0344 9.0625L10.75 6.725L9.675 9.3375L9.40625 7.61875C8.80156 5.55625 6.85313 3.2875 4.70312 2.1875L7.72656 13.1875H11.3547L13.0344 9.0625Z" fill="#051244"/>
<path d="M19.2828 13.1874L16.3938 10.1624L15.8563 13.1874H19.2828Z" fill="#051244"/>
<path d="M27.0094 8.9248C27.2781 9.1998 27.4125 9.40606 27.3453 9.68106C27.3453 10.5061 26.2703 10.9186 25.3297 10.9186C23.9859 10.9186 23.2469 10.7123 22.1047 10.2311L21.6344 10.0248L21.1641 12.8436C21.9703 13.1873 23.4484 13.5311 24.9938 13.5311C27.1438 13.5311 28.8906 12.9123 29.8984 11.8123L27.0094 8.9248Z" fill="#051244"/>
<path d="M30.9062 13.1874H34.0641L34.7359 11.1249H39.0359L39.4391 13.1874H42.6641L41.5219 8.16865L37.4906 4.18115L37.6922 5.28115C37.6922 5.28115 38.3641 8.3749 38.4984 9.0624H35.6766C35.9453 8.3749 37.0203 5.41865 37.0203 5.41865C37.0203 5.41865 37.2891 4.6624 37.4906 4.18115" fill="#051244"/>
</svg>
