<?xml version="1.0" encoding="utf-8"?>
<!-- Generator: Adobe Illustrator 22.1.0, SVG Export Plug-In . SVG Version: 6.00 Build 0)  -->
<svg version="1.1" id="Слой_1" width="43px" height="50" xmlns="http://www.w3.org/2000/svg" xmlns:xlink="http://www.w3.org/1999/xlink" x="0px" y="0px"
	 viewBox="0 0 43.1 50" style="enable-background:new 0 0 43.1 50;" xml:space="preserve">
<style type="text/css">
	.st0{fill:url(#SVGID_1_);}
	.st1{fill:url(#SVGID_2_);}
	.st2{fill:url(#SVGID_3_);}
	.st3{fill:url(#SVGID_4_);}
	.st4{fill:url(#SVGID_5_);}
	.st5{fill:url(#SVGID_6_);}
	.st6{fill:url(#SVGID_7_);}
	.st7{fill:#2957FC;fill-opacity:0.1;}
</style>
<linearGradient id="SVGID_1_" gradientUnits="userSpaceOnUse" x1="8.683" y1="39.6492" x2="8.683" y2="27.6219" gradientTransform="matrix(1 0 0 -1 0 58)">
	<stop  offset="0" style="stop-color:#4369FD"/>
	<stop  offset="1" style="stop-color:#AC1FEE"/>
</linearGradient>
<path class="st0" d="M8.7,30.4c3.3,0,6-2.7,6-6c0-3.3-2.7-6-6-6C8.3,18.4,8,18.7,8,19c0,0.4,0.3,0.7,0.7,0.7c2.6,0,4.7,2.1,4.7,4.7
	S11.3,29,8.7,29C6.1,29,4,26.9,4,24.4c0-0.4-0.3-0.7-0.7-0.7c-0.4,0-0.7,0.3-0.7,0.7C2.7,27.7,5.4,30.4,8.7,30.4z"/>
<linearGradient id="SVGID_2_" gradientUnits="userSpaceOnUse" x1="8.6829" y1="36.98" x2="8.6829" y2="30.2914" gradientTransform="matrix(1 0 0 -1 0 58)">
	<stop  offset="0" style="stop-color:#4369FD"/>
	<stop  offset="1" style="stop-color:#AC1FEE"/>
</linearGradient>
<path class="st1" d="M8.7,27.7c0.4,0,0.7-0.3,0.7-0.7c0-0.4-0.3-0.7-0.7-0.7c-1.1,0-2-0.9-2-2c0-1.1,0.9-2,2-2c1.1,0,2,0.9,2,2
	c0,0.4,0.3,0.7,0.7,0.7c0.4,0,0.7-0.3,0.7-0.7c0-1.8-1.5-3.3-3.3-3.3c-1.8,0-3.3,1.5-3.3,3.3C5.3,26.2,6.8,27.7,8.7,27.7z"/>
<linearGradient id="SVGID_3_" gradientUnits="userSpaceOnUse" x1="26.2576" y1="34.3069" x2="26.2576" y2="32.9642" gradientTransform="matrix(1 0 0 -1 0 58)">
	<stop  offset="0" style="stop-color:#4369FD"/>
	<stop  offset="1" style="stop-color:#AC1FEE"/>
</linearGradient>
<path class="st2" d="M19.4,25h13.8c0.4,0,0.7-0.3,0.7-0.7c0-0.4-0.3-0.7-0.7-0.7H19.4c-0.4,0-0.7,0.3-0.7,0.7
	C18.7,24.7,19,25,19.4,25z"/>
<linearGradient id="SVGID_4_" gradientUnits="userSpaceOnUse" x1="8.6831" y1="23.626" x2="8.6831" y2="11.5987" gradientTransform="matrix(1 0 0 -1 0 58)">
	<stop  offset="0" style="stop-color:#4369FD"/>
	<stop  offset="1" style="stop-color:#AC1FEE"/>
</linearGradient>
<path class="st3" d="M2.7,40.4c0,3.3,2.7,6,6,6c3.3,0,6-2.7,6-6c0-3.3-2.7-6-6-6C8.3,34.4,8,34.7,8,35c0,0.4,0.3,0.7,0.7,0.7
	c2.6,0,4.7,2.1,4.7,4.7s-2.1,4.7-4.7,4.7C6.1,45.1,4,43,4,40.4c0-0.4-0.3-0.7-0.7-0.7C3,39.7,2.7,40,2.7,40.4z"/>
<linearGradient id="SVGID_5_" gradientUnits="userSpaceOnUse" x1="8.6829" y1="20.9568" x2="8.6829" y2="14.2684" gradientTransform="matrix(1 0 0 -1 0 58)">
	<stop  offset="0" style="stop-color:#4369FD"/>
	<stop  offset="1" style="stop-color:#AC1FEE"/>
</linearGradient>
<path class="st4" d="M8.7,43.7c0.4,0,0.7-0.3,0.7-0.7c0-0.4-0.3-0.7-0.7-0.7c-1.1,0-2-0.9-2-2c0-1.1,0.9-2,2-2c1.1,0,2,0.9,2,2
	c0,0.4,0.3,0.7,0.7,0.7c0.4,0,0.7-0.3,0.7-0.7c0-1.8-1.5-3.3-3.3-3.3c-1.8,0-3.3,1.5-3.3,3.3C5.3,42.2,6.8,43.7,8.7,43.7z"/>
<linearGradient id="SVGID_6_" gradientUnits="userSpaceOnUse" x1="22.1137" y1="50.1375" x2="22.1137" y2="8.0669" gradientTransform="matrix(1 0 0 -1 0 58)">
	<stop  offset="0" style="stop-color:#4369FD"/>
	<stop  offset="1" style="stop-color:#AC1FEE"/>
</linearGradient>
<path class="st5" d="M37.7,33.2c3.1-1.3,5.3-4.4,5.3-8c0-4.8-3.9-8.7-8.7-8.7h-6.7l-7.8-7.8c0,0,0,0,0,0c-0.5-0.5-1.3-0.9-2.1-0.9
	c-1.7,0-3,1.4-3,3c0,0.8,0.3,1.6,0.9,2.1c0,0,0,0,0,0l3.5,3.5H9.9c-4.8,0-8.7,3.9-8.7,8.7c0,3.6,2.2,6.7,5.3,8
	c-3.1,1.3-5.3,4.4-5.3,8c0,4.8,3.9,8.7,8.7,8.7c0,0,24.5,0,24.5,0c4.8,0,8.7-3.9,8.7-8.7C43,37.6,40.8,34.6,37.7,33.2z M40.9,44.6
	H19.5c-0.4,0-0.7,0.3-0.7,0.7c0,0.4,0.3,0.7,0.7,0.7H40c-1.3,1.6-3.4,2.6-5.6,2.6H14.5c2.3-1.4,3.8-3.9,4-6.7h6
	c0.4,0,0.7-0.3,0.7-0.7c0-0.4-0.3-0.7-0.7-0.7h-6c-0.2-2.8-1.8-5.2-4-6.7h19.8c4,0,7.3,3.3,7.3,7.3C41.7,42.5,41.4,43.6,40.9,44.6z
	 M17.7,9.2c0.9,0,1.7,0.8,1.7,1.7s-0.8,1.7-1.7,1.7c-0.9,0-1.7-0.8-1.7-1.7S16.7,9.2,17.7,9.2z M20.6,17.9h3c0.4,0,0.7-0.3,0.7-0.7
	c0-0.4-0.3-0.7-0.7-0.7h-2.7l-2.6-2.6c1.2-0.2,2.2-1.2,2.4-2.4l6.2,6.2c0.1,0.1,0.3,0.2,0.5,0.2h7c3.8,0,7,2.9,7.3,6.7H37
	c-0.4,0-0.7,0.3-0.7,0.7c0,0.4,0.3,0.7,0.7,0.7h4.6c-0.3,3.7-3.5,6.7-7.3,6.7H14.5c1.1-0.7,2-1.6,2.7-2.6h10.1
	c0.4,0,0.7-0.3,0.7-0.7c0-0.4-0.3-0.7-0.7-0.7h-9.4c0.4-1,0.7-2.2,0.7-3.4c0-3.1-1.6-5.8-4-7.3L20.6,17.9L20.6,17.9z M9.9,17.9
	c4,0,7.3,3.3,7.3,7.3c0,4-3.3,7.3-7.3,7.3c-4.1,0-7.3-3.3-7.3-7.3C2.5,21.2,5.8,17.9,9.9,17.9z M17.2,41.3c0,4-3.3,7.3-7.3,7.3
	c-4.1,0-7.3-3.3-7.3-7.3c0-4,3.3-7.3,7.3-7.3C13.9,33.9,17.2,37.2,17.2,41.3z"/>
<linearGradient id="SVGID_7_" gradientUnits="userSpaceOnUse" x1="32.2599" y1="18.2837" x2="32.2599" y2="16.941" gradientTransform="matrix(1 0 0 -1 0 58)">
	<stop  offset="0" style="stop-color:#4369FD"/>
	<stop  offset="1" style="stop-color:#AC1FEE"/>
</linearGradient>
<path class="st6" d="M25.4,40.4c0,0.4,0.3,0.7,0.7,0.7h12.5c0.4,0,0.7-0.3,0.7-0.7c0-0.4-0.3-0.7-0.7-0.7H26
	C25.7,39.7,25.4,40,25.4,40.4z"/>
<path class="st7" d="M0.2,9.7c0-5.3,4.3-9.7,9.7-9.7c10.7,0,19.4,8.7,19.4,19.4v3.1c0,5.6-4.5,10.1-10.1,10.1h-7.3
	C5.4,32.6,0.2,27.4,0.2,21V9.7z"/>
</svg>
