<svg width="264" height="249" fill="none" xmlns="http://www.w3.org/2000/svg"><path d="M106.87 233.407c.23-2.811.211-8.327-2.383-14.551-2.995-7.198-12.03-10.298-12.03-10.298s-2.186 10.396 2.07 17.244c1.37 2.208 3.976 4.371 6.418 6.085a110.924 110.924 0 01-12.897-4.592c.706-2.652 1.654-8.012.2-14.507-1.664-7.455-9.86-11.984-9.86-11.984s-3.876 9.664-.936 16.996c.963 2.394 3.152 4.965 5.244 7.048a115.208 115.208 0 01-7.805-4.163 78.645 78.645 0 01-4.4-2.579c1.126-2.376 3.036-7.456 2.735-14.116-.334-7.479-7.47-13.241-7.47-13.241s-5.393 8.669-3.803 16.241c.558 2.658 2.446 5.753 4.223 8.215-3.821-2.733-7.601-5.885-11.258-9.403 1.483-2.081 4.226-6.68 5.073-13.209.955-7.269-4.95-14.044-4.95-14.044s-6.68 7.449-6.438 15.025c.086 2.615 1.338 5.85 2.606 8.499a117.782 117.782 0 01-9.318-11.196c1.817-1.814 5.14-5.748 7.028-11.766 2.16-6.857-2.386-14.399-2.386-14.399s-7.72 6.054-8.772 13.41c-.345 2.408.227 5.531.948 8.215A119.268 119.268 0 0131.64 174.2c2.037-1.412 5.984-4.655 8.872-10.22 3.252-6.251.152-14.301.152-14.301s-8.481 4.531-10.752 11.453c-.78 2.384-.717 5.708-.442 8.512a110.518 110.518 0 01-5.077-13.525c2.155-.972 6.63-3.432 10.455-8.423 4.203-5.479 2.586-13.777 2.586-13.777s-8.96 2.933-12.328 9.228c-1.241 2.306-1.732 5.809-1.921 8.67a100.893 100.893 0 01-2.661-14.844c2.207-.549 7.013-2.152 11.61-6.373 4.996-4.579 4.847-12.859 4.847-12.859s-9.147 1.306-13.47 6.813c-1.605 2.035-2.683 5.376-3.352 8.116a99.167 99.167 0 01-.2-15.676c2.133-.13 7.173-.807 12.473-4.191 5.597-3.57 6.868-11.587 6.868-11.587s-9.054-.291-14.164 4.282c-2.048 1.833-3.765 5.236-4.88 7.874.561-5.558 1.55-11.02 2.921-16.324 2.108.233 7.062.417 12.715-1.932 6.01-2.493 8.604-10.018 8.604-10.018s-8.69-1.818-14.402 1.731c-2.211 1.373-4.378 4.219-5.898 6.538a118.25 118.25 0 015.697-15.306c1.996.584 6.742 1.605 12.596.297 6.23-1.384 10.01-8.204 10.01-8.204s-8.07-3.232-14.195-.777c-2.382.953-4.976 3.36-6.839 5.345a118.525 118.525 0 018.225-14.193c1.673.855 6.196 2.809 12.318 2.532 6.244-.278 11.057-6.22 11.057-6.22s-7.237-4.488-13.563-3.158c-2.727.572-6.01 2.816-8.176 4.501 3.438-4.82 7.136-9.2 10.979-13.053 1.29 1.007 5.422 3.87 11.644 4.678 6.077.794 11.741-4.12 11.741-4.12s-6.225-5.564-12.558-5.356c-3 .096-6.984 2.024-9.318 3.312a81.696 81.696 0 016.478-5.613 117.722 117.722 0 017.244-5.562c1.111 1.226 4.605 4.646 10.418 6.464 5.724 1.797 12.027-1.985 12.027-1.985s-5.062-6.423-11.206-7.3c-2.865-.41-6.958.732-9.444 1.57a114.584 114.584 0 0114.978-8.652c.692 1.145 3.48 5.306 9.065 8.195 5.222 2.71 11.946.13 11.946.13s-3.791-7.06-9.567-8.95c-3.018-.985-7.846-.36-10.213.046a108.797 108.797 0 0110.44-4.215c1.23.603 5.304 2.36 8.99 1.094 5.505-1.886 8.229-5.591 8.229-5.591s-5.683-2.173-9.061-1.601c-4.23.723-7.686 4.829-8.396 5.721a101.019 101.019 0 00-8.314 3.023c2.036-1.396 5.772-4.2 7.214-6.924 2.847-5.371.665-13.076.665-13.076s-6.638 2.803-8.515 8.369c-2.033 6.035-1.093 11.026-.81 12.24a111.522 111.522 0 00-15.473 8.197c1.844-1.848 4.754-5.072 5.653-7.87C78.072 15.454 74.508 8.1 74.508 8.1s-6.17 3.988-7.069 9.916c-.951 6.265.77 11.03 1.32 12.345-3.007 1.981-6.1 4.21-9.236 6.738a80.245 80.245 0 00-4.16 3.366c1.48-2.225 3.312-5.416 3.673-8.008.87-6.265-4.014-13.027-4.014-13.027s-5.497 5.1-5.348 11.215c.148 6.066 2.415 10.383 3.348 11.912-3.861 3.583-7.611 7.703-11.135 12.258 1.048-2.468 2.197-5.785 2.104-8.32-.242-6.452-6.356-12.383-6.356-12.383S33.023 40.21 34.26 46.33c1.22 6.048 4.252 9.981 5.468 11.361a119.2 119.2 0 00-8.924 14.375c.636-2.685 1.249-6.341.687-8.937-1.386-6.44-8.578-11.319-8.578-11.319s-3.553 6.946-1.226 12.874c2.315 5.907 6.099 9.328 7.545 10.476a119.84 119.84 0 00-6.17 15.03c.119-2.718.015-6.113-.93-8.432-2.534-6.223-10.629-9.854-10.629-9.854s-2.338 7.605 1.056 13.152c3.267 5.349 7.504 8.115 9.273 9.1a111.188 111.188 0 00-3.308 14.995c-.398-2.546-1.085-5.425-2.29-7.34-3.65-5.803-12.428-8.022-12.428-8.022s-1 8.059 3.39 13.029c4.062 4.603 8.6 6.663 10.685 7.421a102.969 102.969 0 00-.413 15.02c-.847-2.454-2.036-5.161-3.556-6.838C9.21 117.231 0 116.552 0 116.552s.42 8.276 5.716 12.499c4.94 3.94 9.916 5.193 12.117 5.573.316 4.79.966 9.506 1.925 14.117-1.271-2.26-2.907-4.661-4.676-6.039C9.433 138.32.056 139.271.056 139.271s1.895 8.24 7.968 11.546c5.575 3.037 10.715 3.448 13.053 3.454a111.31 111.31 0 004.531 13.519c-1.691-2.068-3.787-4.246-5.843-5.335-6.456-3.405-15.706-.787-15.706-.787s3.363 7.944 10.05 10.193c6.177 2.074 11.436 1.564 13.766 1.159a120.578 120.578 0 006.843 12.651c-2.09-1.814-4.628-3.679-6.925-4.417-7.084-2.282-15.922 1.985-15.922 1.985s4.795 7.386 11.912 8.462c6.582.994 11.786-.455 14.05-1.275a121.21 121.21 0 008.425 10.898c-2.282-1.316-4.88-2.534-7.11-2.842-7.527-1.037-15.651 4.812-15.651 4.812s6.129 6.575 13.473 6.399c6.541-.16 11.388-2.367 13.64-3.627a108.495 108.495 0 009.704 8.892c-2.349-.813-4.895-1.442-6.99-1.363-7.746.285-14.875 7.602-14.875 7.602s7.326 5.525 14.677 4.045c6.427-1.293 10.86-4.282 12.95-5.965a83.458 83.458 0 007.042 4.373c1.487.885 2.955 1.714 4.408 2.495-2.59-.43-5.392-.653-7.578-.183-7.73 1.658-13.596 10.268-13.596 10.268s8.344 4.258 15.47 1.472c6.318-2.473 10.269-6.342 12.03-8.379 4.282 2 8.344 3.592 12.094 4.854-2.642.033-5.433.311-7.507 1.154-7.478 3.035-11.842 12.728-11.842 12.728s9.14 2.8 15.804-1.263c5.88-3.579 9.158-8.13 10.581-10.501 10.7 2.833 17.294 3.249 17.294 3.249l.193-1.917.197-1.916s-5.148-.351-13.796-2.304zm149.109-82.59c6.07-3.306 7.965-11.546 7.965-11.546s-9.377-.951-15.026 3.431c-1.769 1.378-3.405 3.779-4.676 6.039a101.836 101.836 0 001.925-14.117c2.201-.379 7.173-1.633 12.113-5.573 5.3-4.223 5.72-12.499 5.72-12.499s-9.21.679-13.911 5.868c-1.521 1.681-2.71 4.384-3.557 6.838a102.07 102.07 0 00-.417-15.02c2.089-.758 6.627-2.818 10.69-7.421 4.389-4.97 3.389-13.029 3.389-13.029s-8.779 2.219-12.428 8.022c-1.205 1.917-1.892 4.796-2.29 7.343a111.805 111.805 0 00-3.304-14.998c1.765-.985 6.002-3.751 9.269-9.1 3.397-5.547 1.056-13.152 1.056-13.152s-8.095 3.631-10.634 9.854c-.94 2.319-1.044 5.714-.925 8.432a119.81 119.81 0 00-6.17-15.03c1.446-1.148 5.23-4.569 7.545-10.476 2.327-5.928-1.226-12.874-1.226-12.874s-7.189 4.88-8.578 11.32c-.558 2.595.055 6.255.687 8.938a119.25 119.25 0 00-8.924-14.376c1.216-1.38 4.248-5.314 5.468-11.362 1.234-6.119-3.375-12.217-3.375-12.217s-6.114 5.931-6.356 12.382c-.093 2.536 1.056 5.853 2.108 8.32-3.531-4.554-7.278-8.674-11.139-12.257.933-1.529 3.2-5.846 3.348-11.912.149-6.115-5.344-11.215-5.344-11.215s-4.884 6.762-4.014 13.027c.357 2.592 2.189 5.783 3.668 8.008a80.162 80.162 0 00-4.159-3.366 119.172 119.172 0 00-9.236-6.738c.55-1.314 2.275-6.08 1.323-12.345-.899-5.928-7.069-9.916-7.069-9.916s-3.568 7.354-1.657 13.255c.903 2.798 3.809 6.023 5.657 7.874a111.223 111.223 0 00-15.477-8.2c.283-1.215 1.223-6.206-.81-12.241-1.877-5.566-8.515-8.37-8.515-8.37s-2.178 7.706.665 13.077c1.439 2.721 5.178 5.526 7.214 6.924a100.991 100.991 0 00-8.314-3.023c-.71-.892-4.166-4.998-8.392-5.721-3.382-.572-9.065 1.6-9.065 1.6s2.724 3.706 8.229 5.592c3.69 1.266 7.764-.491 8.99-1.094 2.855.983 6.408 2.34 10.444 4.215-2.367-.406-7.195-1.031-10.217-.046-5.776 1.89-9.567 8.95-9.567 8.95s6.724 2.58 11.946-.13c5.586-2.89 8.373-7.05 9.065-8.195a114.144 114.144 0 0114.978 8.655c-2.486-.839-6.575-1.984-9.448-1.574-6.14.878-11.202 7.3-11.202 7.3s6.303 3.783 12.031 1.986c5.813-1.818 9.307-5.238 10.418-6.464a120.231 120.231 0 017.244 5.562 83.216 83.216 0 016.478 5.613c-2.334-1.286-6.319-3.216-9.325-3.312-6.33-.208-12.552 5.356-12.552 5.356s5.661 4.914 11.738 4.12c6.221-.809 10.354-3.671 11.644-4.68 3.843 3.855 7.541 8.237 10.979 13.055-2.163-1.683-5.445-3.93-8.176-4.5-6.326-1.331-13.563 3.157-13.563 3.157s4.813 5.942 11.057 6.22c6.122.277 10.649-1.677 12.317-2.532a118.337 118.337 0 018.226 14.196c-1.863-1.988-4.457-4.395-6.843-5.348-6.118-2.455-14.19.777-14.19.777s3.783 6.82 10.009 8.204c5.854 1.308 10.603.287 12.596-.297a117.627 117.627 0 015.697 15.31c-1.52-2.32-3.687-5.167-5.902-6.542-5.709-3.55-14.395-1.731-14.395-1.731s2.591 7.525 8.601 10.018c5.653 2.35 10.607 2.165 12.715 1.932a109.026 109.026 0 012.921 16.324c-1.115-2.636-2.832-6.041-4.88-7.874-5.11-4.573-14.164-4.282-14.164-4.282s1.271 8.017 6.868 11.587c5.3 3.384 10.344 4.061 12.477 4.191a99.683 99.683 0 01-.204 15.68c-.669-2.744-1.747-6.085-3.349-8.12-4.326-5.507-13.473-6.813-13.473-6.813s-.149 8.28 4.847 12.859c4.597 4.221 9.403 5.824 11.61 6.373a101.31 101.31 0 01-2.657 14.844c-.189-2.861-.684-6.364-1.922-8.67-3.367-6.295-12.328-9.228-12.328-9.228s-1.62 8.298 2.583 13.777c3.825 4.991 8.3 7.451 10.455 8.423a110.387 110.387 0 01-5.077 13.525c.275-2.804.342-6.128-.442-8.512-2.271-6.922-10.752-11.453-10.752-11.453s-3.1 8.05.152 14.301c2.892 5.565 6.835 8.808 8.872 10.22a117.813 117.813 0 01-7.069 12.137c.721-2.684 1.293-5.807.947-8.215-1.051-7.356-8.767-13.41-8.767-13.41s-4.549 7.542-2.39 14.399c1.888 6.018 5.211 9.952 7.032 11.762a118.104 118.104 0 01-9.322 11.199c1.268-2.652 2.52-5.883 2.606-8.498.245-7.576-6.441-15.025-6.441-15.025s-5.899 6.775-4.947 14.044c.851 6.529 3.59 11.128 5.073 13.209-3.657 3.518-7.433 6.67-11.258 9.401 1.777-2.46 3.669-5.555 4.223-8.213 1.59-7.572-3.803-16.241-3.803-16.241s-7.132 5.762-7.47 13.241c-.301 6.66 1.613 11.74 2.735 14.116a77.408 77.408 0 01-4.404 2.579 115.218 115.218 0 01-7.801 4.163c2.092-2.083 4.281-4.654 5.244-7.048 2.94-7.332-.937-16.996-.937-16.996s-8.195 4.529-9.86 11.984c-1.453 6.495-.506 11.855.201 14.507a110.993 110.993 0 01-12.897 4.592c2.442-1.714 5.043-3.877 6.415-6.085 4.259-6.848 2.074-17.244 2.074-17.244s-9.036 3.1-12.031 10.298c-2.591 6.224-2.613 11.74-2.383 14.551-8.645 1.953-13.792 2.304-13.792 2.304l.193 1.916.197 1.917s6.59-.416 17.29-3.249c1.423 2.371 4.702 6.922 10.581 10.501 6.664 4.063 15.804 1.263 15.804 1.263s-4.364-9.693-11.841-12.728c-2.074-.843-4.866-1.121-7.508-1.154a116.166 116.166 0 0012.094-4.854c1.761 2.037 5.712 5.906 12.031 8.379 7.125 2.786 15.469-1.472 15.469-1.472s-5.865-8.61-13.596-10.268c-2.186-.47-4.984-.247-7.582.183 1.457-.781 2.925-1.61 4.412-2.495a82.861 82.861 0 007.039-4.373c2.089 1.679 6.526 4.672 12.953 5.965 7.351 1.48 14.677-4.045 14.677-4.045s-7.125-7.317-14.874-7.602c-2.096-.079-4.642.55-6.991 1.363a109.18 109.18 0 009.708-8.892c2.248 1.26 7.095 3.467 13.636 3.627 7.344.176 13.473-6.399 13.473-6.399s-8.125-5.849-15.651-4.812c-2.23.308-4.828 1.526-7.11 2.842a121.064 121.064 0 008.426-10.898c2.263.82 7.463 2.269 14.049 1.275 7.121-1.076 11.916-8.462 11.916-8.462s-8.839-4.267-15.926-1.985c-2.301.738-4.836 2.604-6.925 4.417a121.197 121.197 0 006.843-12.651c2.33.405 7.589.915 13.763-1.159 6.69-2.249 10.053-10.193 10.053-10.193s-9.254-2.618-15.706.787c-2.056 1.089-4.152 3.267-5.843 5.335a111.99 111.99 0 004.531-13.519c2.337-.006 7.478-.417 13.056-3.454z" fill="#E1E3E4"/><path d="M126.36 97.5c0 1.16-.12 2.28-.36 3.36s-.66 2.14-1.26 3.18c-.56 1-1.32 2-2.28 3-.92 1-2.06 2-3.42 3l-8.4 6.36h15.06c.44 0 .82.16 1.14.48.32.32.48.7.48 1.14v6.36c0 .44-.16.82-.48 1.14-.32.32-.7.48-1.14.48H94.02c-.44 0-.82-.16-1.14-.48-.32-.32-.48-.7-.48-1.14v-5.16c0-.64.12-1.28.36-1.92.28-.64.74-1.18 1.38-1.62l17.94-12.84c1.4-1.04 2.28-1.98 2.64-2.82.36-.88.54-1.72.54-2.52 0-.28-.06-.66-.18-1.14-.08-.52-.3-1.02-.66-1.5-.36-.52-.88-.96-1.56-1.32-.64-.36-1.52-.54-2.64-.54s-2.04.2-2.76.6c-.68.36-1.22.78-1.62 1.26-.36.48-.64.98-.84 1.5l-.36 1.08c-.2.56-.52.94-.96 1.14-.4.16-.88.24-1.44.24h-7.38c-.36 0-.68-.12-.96-.36-.24-.28-.36-.6-.36-.96.04-1.68.4-3.34 1.08-4.98.68-1.68 1.7-3.2 3.06-4.56 1.4-1.36 3.12-2.46 5.16-3.3 2.08-.84 4.52-1.26 7.32-1.26 2.64 0 4.96.4 6.96 1.2 2.04.76 3.74 1.8 5.1 3.12 1.36 1.28 2.38 2.78 3.06 4.5.72 1.68 1.08 3.44 1.08 5.28zm24.241-14.1c3 0 5.58.44 7.74 1.32 2.16.88 3.94 2.06 5.34 3.54 1.44 1.48 2.5 3.22 3.18 5.22.72 1.96 1.14 4.02 1.26 6.18.08 1.72.12 3.52.12 5.4 0 1.88-.04 3.64-.12 5.28a21.91 21.91 0 01-1.26 6.24c-.68 1.96-1.74 3.68-3.18 5.16-1.4 1.48-3.18 2.66-5.34 3.54-2.16.88-4.74 1.32-7.74 1.32s-5.58-.44-7.74-1.32c-2.16-.88-3.96-2.06-5.4-3.54-1.4-1.48-2.46-3.2-3.18-5.16-.68-2-1.08-4.08-1.2-6.24-.08-1.64-.12-3.4-.12-5.28 0-1.88.04-3.68.12-5.4.12-2.16.52-4.22 1.2-6.18.72-2 1.78-3.74 3.18-5.22 1.44-1.48 3.24-2.66 5.4-3.54 2.16-.88 4.74-1.32 7.74-1.32zm6.42 26.64c.16-3.4.16-6.76 0-10.08-.08-1-.24-1.92-.48-2.76-.2-.84-.54-1.56-1.02-2.16-.48-.64-1.12-1.14-1.92-1.5-.8-.36-1.8-.54-3-.54s-2.2.18-3 .54c-.8.36-1.44.86-1.92 1.5-.48.6-.84 1.32-1.08 2.16-.24.84-.38 1.76-.42 2.76-.2 3.32-.2 6.68 0 10.08.04 1 .16 1.92.36 2.76.24.84.6 1.58 1.08 2.22.52.6 1.18 1.08 1.98 1.44.8.36 1.8.54 3 .54s2.2-.18 3-.54c.8-.36 1.44-.84 1.92-1.44.52-.64.88-1.38 1.08-2.22.24-.84.38-1.76.42-2.76zm-88.178 34.5c0-.147.053-.273.16-.38a.518.518 0 01.38-.16h8.28c.147 0 .273.053.38.16.107.107.16.233.16.38v12.92a.519.519 0 01-.16.38.518.518 0 01-.38.16h-.82a.518.518 0 01-.38-.16.519.519 0 01-.16-.38V145.8h-5.56v8.6c0 .493-.073.967-.22 1.42a3.208 3.208 0 01-1.8 2.06c-.467.213-1.033.32-1.7.32h-.24a.518.518 0 01-.38-.16.519.519 0 01-.16-.38v-.72c0-.147.053-.273.16-.38a.518.518 0 01.38-.16h.16c.627 0 1.1-.167 1.42-.5.32-.333.48-.86.48-1.58v-9.78zm12.105 7.26c.053-.613.2-1.187.44-1.72.24-.533.553-1 .94-1.4.386-.4.846-.713 1.38-.94a4.703 4.703 0 011.82-.34c.72 0 1.36.12 1.92.36.573.227 1.06.56 1.46 1 .4.44.706.973.92 1.6.213.627.32 1.327.32 2.1v.54a.519.519 0 01-.16.38.518.518 0 01-.38.16h-6.88v.12c.026.907.3 1.607.82 2.1.533.48 1.193.72 1.98.72.733 0 1.28-.1 1.64-.3a3.57 3.57 0 00.9-.7c.106-.107.2-.18.28-.22.08-.04.2-.06.36-.06h.6c.146 0 .28.053.4.16a.39.39 0 01.14.38c-.04.24-.154.507-.34.8-.187.28-.46.547-.82.8-.347.24-.787.447-1.32.62-.52.16-1.134.24-1.84.24-.667 0-1.267-.113-1.8-.34-.534-.24-1-.56-1.4-.96a5.065 5.065 0 01-.94-1.44 5.787 5.787 0 01-.44-1.82 8.497 8.497 0 010-1.84zm1.78.06h5.62v-.06c0-.813-.26-1.46-.78-1.94-.507-.493-1.187-.74-2.04-.74-.387 0-.747.067-1.08.2-.334.12-.627.3-.88.54a2.421 2.421 0 00-.6.84c-.147.333-.227.7-.24 1.1v.06zm17.756-4.26c.147 0 .274.053.38.16.107.107.16.233.16.38v.64a.518.518 0 01-.16.38.516.516 0 01-.38.16h-3.46v8.14a.519.519 0 01-.16.38.518.518 0 01-.38.16h-.74a.518.518 0 01-.38-.16.519.519 0 01-.16-.38v-8.14h-3.46a.518.518 0 01-.38-.16.519.519 0 01-.16-.38v-.64c0-.147.054-.273.16-.38a.518.518 0 01.38-.16h8.74zm14.873 0a.52.52 0 01.38.16c.106.107.16.233.16.38v.64a.522.522 0 01-.16.38.52.52 0 01-.38.16h-5.82v8.14a.522.522 0 01-.16.38.52.52 0 01-.38.16h-.74a.516.516 0 01-.38-.16.518.518 0 01-.16-.38v-9.32c0-.147.053-.273.16-.38a.516.516 0 01.38-.16h7.1zm1.366 7.78c0-.533.107-1 .32-1.4.213-.4.507-.74.88-1.02s.807-.507 1.3-.68c.507-.173 1.04-.307 1.6-.4l2.82-.46v-.26c0-.68-.227-1.187-.68-1.52-.44-.347-.993-.52-1.66-.52-.587 0-1.033.107-1.34.32a3.425 3.425 0 00-.76.76.657.657 0 01-.26.22.984.984 0 01-.38.06h-.6a.586.586 0 01-.4-.16.456.456 0 01-.14-.38c.027-.293.14-.593.34-.9.213-.307.493-.58.84-.82.36-.24.767-.433 1.22-.58.467-.16.96-.24 1.48-.24.6 0 1.153.087 1.66.26.52.173.96.427 1.32.76.373.333.66.747.86 1.24.213.493.32 1.06.32 1.7v6.1a.518.518 0 01-.16.38.518.518 0 01-.38.16h-.74a.518.518 0 01-.38-.16.518.518 0 01-.16-.38v-.82a1.92 1.92 0 01-.56.68 3.92 3.92 0 01-.88.48c-.32.133-.66.233-1.02.3-.347.067-.673.1-.98.1-.52 0-1-.073-1.44-.22a3.75 3.75 0 01-1.1-.58 2.871 2.871 0 01-.7-.9c-.16-.347-.24-.72-.24-1.12zm3.68 1.1a3.8 3.8 0 001.32-.22c.4-.147.74-.347 1.02-.6.293-.267.513-.58.66-.94.16-.36.24-.76.24-1.2v-.5l-2.36.38c-.84.133-1.507.347-2 .64-.493.293-.74.673-.74 1.14 0 .147.033.293.1.44.067.147.173.287.32.42.147.133.333.24.56.32.24.08.533.12.88.12zm12.898 1.72c-.827 0-1.487-.14-1.98-.42-.493-.293-.867-.607-1.12-.94v4.42a.518.518 0 01-.16.38.518.518 0 01-.38.16h-.74a.518.518 0 01-.38-.16.518.518 0 01-.16-.38v-13.12c0-.147.053-.273.16-.38a.518.518 0 01.38-.16h.74c.147 0 .273.053.38.16.107.107.16.233.16.38v.62c.267-.36.647-.673 1.14-.94.493-.28 1.147-.42 1.96-.42.627 0 1.207.113 1.74.34.547.213 1.02.527 1.42.94.4.413.72.913.96 1.5s.38 1.247.42 1.98a10.213 10.213 0 010 1.3c-.04.733-.18 1.393-.42 1.98a4.665 4.665 0 01-.96 1.5c-.4.4-.873.713-1.42.94a4.647 4.647 0 01-1.74.32zm-3.1-6.26c-.013.2-.02.467-.02.8 0 .32.007.58.02.78.04.947.32 1.68.84 2.2.533.507 1.22.76 2.06.76.88 0 1.573-.28 2.08-.84.507-.56.787-1.32.84-2.28.013-.373.013-.747 0-1.12-.053-.96-.333-1.72-.84-2.28-.507-.56-1.2-.84-2.08-.84-.827 0-1.507.253-2.04.76-.533.507-.82 1.193-.86 2.06zm9.393 3.44c0-.533.107-1 .32-1.4.213-.4.507-.74.88-1.02s.807-.507 1.3-.68c.507-.173 1.04-.307 1.6-.4l2.82-.46v-.26c0-.68-.227-1.187-.68-1.52-.44-.347-.993-.52-1.66-.52-.587 0-1.033.107-1.34.32a3.425 3.425 0 00-.76.76.657.657 0 01-.26.22.984.984 0 01-.38.06h-.6a.586.586 0 01-.4-.16.456.456 0 01-.14-.38c.027-.293.14-.593.34-.9.213-.307.493-.58.84-.82.36-.24.767-.433 1.22-.58.467-.16.96-.24 1.48-.24.6 0 1.153.087 1.66.26.52.173.96.427 1.32.76.373.333.66.747.86 1.24.213.493.32 1.06.32 1.7v6.1a.518.518 0 01-.16.38.518.518 0 01-.38.16h-.74a.518.518 0 01-.38-.16.518.518 0 01-.16-.38v-.82a1.92 1.92 0 01-.56.68 3.92 3.92 0 01-.88.48c-.32.133-.66.233-1.02.3-.347.067-.673.1-.98.1-.52 0-1-.073-1.44-.22a3.75 3.75 0 01-1.1-.58 2.871 2.871 0 01-.7-.9c-.16-.347-.24-.72-.24-1.12zm3.68 1.1a3.8 3.8 0 001.32-.22c.4-.147.74-.347 1.02-.6.293-.267.513-.58.66-.94.16-.36.24-.76.24-1.2v-.5l-2.36.38c-.84.133-1.507.347-2 .64-.493.293-.74.673-.74 1.14 0 .147.033.293.1.44.067.147.173.287.32.42.147.133.333.24.56.32.24.08.533.12.88.12zm16.718-8.88c.147 0 .273.053.38.16.107.107.16.233.16.38v9.32a.518.518 0 01-.16.38.518.518 0 01-.38.16h-.74a.518.518 0 01-.38-.16.518.518 0 01-.16-.38v-3.9h-5.64v3.9a.518.518 0 01-.16.38.518.518 0 01-.38.16h-.74a.56.56 0 01-.38-.14.542.542 0 01-.16-.4v-9.32c0-.147.053-.273.16-.38a.518.518 0 01.38-.16h.74c.147 0 .273.053.38.16.107.107.16.233.16.38v3.7h5.64v-3.7c0-.147.053-.273.16-.38a.518.518 0 01.38-.16h.74zm11.625 0c.147 0 .273.053.38.16.107.107.16.233.16.38v.64a.518.518 0 01-.16.38.518.518 0 01-.38.16h-3.46v8.14a.518.518 0 01-.16.38.518.518 0 01-.38.16h-.74a.518.518 0 01-.38-.16.518.518 0 01-.16-.38v-8.14h-3.46a.518.518 0 01-.38-.16.518.518 0 01-.16-.38v-.64c0-.147.053-.273.16-.38a.518.518 0 01.38-.16h8.74zm10.35 10.4a.516.516 0 01-.38-.16.518.518 0 01-.16-.38v-6.7l-5.82 7.02a.515.515 0 01-.44.22h-.68a.516.516 0 01-.38-.16.555.555 0 01-.14-.38v-9.32c0-.147.053-.273.16-.38a.516.516 0 01.38-.16h.74a.52.52 0 01.38.16c.106.107.16.233.16.38v6.76l5.82-7.08c.066-.067.126-.12.18-.16a.498.498 0 01.26-.06h.66a.52.52 0 01.38.16c.106.107.16.233.16.38v9.32a.522.522 0 01-.16.38.52.52 0 01-.38.16h-.74zm12.285 0a.518.518 0 01-.38-.16.518.518 0 01-.16-.38v-6.7l-5.82 7.02a.514.514 0 01-.44.22h-.68a.518.518 0 01-.38-.16.56.56 0 01-.14-.38v-9.32c0-.147.053-.273.16-.38a.518.518 0 01.38-.16h.74c.147 0 .273.053.38.16.107.107.16.233.16.38v6.76l5.82-7.08c.067-.067.127-.12.18-.16a.5.5 0 01.26-.06h.66c.147 0 .273.053.38.16.107.107.16.233.16.38v9.32a.518.518 0 01-.16.38.518.518 0 01-.38.16h-.74z" fill="#4060FA"/></svg>