<svg id="signature" xmlns="http://www.w3.org/2000/svg" viewBox="0 0 225 60"><defs><style>.cls-1{fill:none;stroke:#000;stroke-miterlimit:10;}</style></defs><title>Монтажная область 1</title>
  <path class="cls-1" d="M3.3,42.9C29.7,31.4,47.4,19.8,58.8,11.2c5.7-4.3,12.1-9.1,11.6-9.9C69.7.2,56.6,8,48.3,13.4,37.4,20.6,34.2,24.3,34.5,27.9a6.32,6.32,0,0,0,1.9,3.9c5.22,5,19.17-.17,19.47-4.4.16-2.3-3.63-5.17-7-4.9-2.74.22-5.6,2.51-5.33,4.33.24,1.61,2.9,2.65,4.85,2.92,4,.57,5.71-2,12.82-5.25,6.91-3.13,11-3.23,12.83-3.17,2.6.09,5.74.19,6.3,1.67.79,2.1-6,6.45-19.4,15.1-1.68,1.08-2.26,1.44-2.35,1.34-.41-.51,11.09-11.42,25-20.94,7-4.81,18-12.37,20.17-10.17,1.5,1.53-1.85,7.21-4.34,10.17-1,1.16-5,5.76-10.63,6.1-.59,0-3.08.19-3.4-.7-.47-1.31,3.93-4.44,4.53-3.9s-2,4.87-5,8c-4.22,4.45-8.86,6.11-13.66,7.83-6.49,2.33-9.56,1.67-10.78,1.23L60,36.9c-1.94-.83-3.67-2.38-3.5-2.73.36-.74,8.57,4.59,21,5.88,4.45.47,5-.06,8.34.42,8.38,1.19,14.63,5.76,18.66,9.53a61.88,61.88,0,0,1-4.83-7A55.08,55.08,0,0,1,97,38c-3.19-7.46,5.63-22.62,18.85-30.95,4-2.54,11.57-6.39,13.15-4.55,2.35,2.74-9.82,16.58-11.83,18.83a110.2,110.2,0,0,1-22.27,19A133.3,133.3,0,0,1,50.6,57.7c-3.22.61-8.72,1.44-12.77-1.7-.18-.14-4.36-3.46-3.66-6.5,1.3-5.7,18.7-6.73,31.83-7.5,19.73-1.15,29.87.88,39.86-5.46,2.42-1.53,5.73-4.13,6.31-3.54s-1.71,4.75-5.47,6.2c-1.31.51-3.46.94-3.9.2s1.36-3.34,3.59-4.6c4.43-2.5,10.82-.52,10.94,1s-5.26,2.91-5.16,3.17,3.16-.74,7.5-2.17c3.72-.87,6.66-1.32,6.93-.63s-2.78,2.63-2.8,2.6,4.87-2.52,7.9-7.2a5.76,5.76,0,0,0,1.13-3.93c-.16-1.19-.88-2.66-1.66-2.67-1,0-2.49,2.63-2,4.4,1.39,4.69,17,3.94,17,4.6,0,.34-4.28.16-9.67,1.7-1.91.55-5.24,1.5-5.17,2.3.12,1.25,8.46,2,16.34,1.17,5.54-.58,10.38-1.88,10.43-1.67s-5.69,1.46-5.6,2.1,6.09.9,12.3-.5c3.24-.73,6.39-1.88,6.5-1.6s-4.16,1.84-4,2.83c.14.69,2.41.89,5.17.87,8.15.2,16.8.16,25.9-.2,8.87-.35,17.28-1,25.2-1.8"/>
</svg>