<?xml version="1.0" encoding="utf-8"?>
<!-- Generator: Adobe Illustrator 22.1.0, SVG Export Plug-In . SVG Version: 6.00 Build 0)  -->
<svg version="1.1" id="Слой_1" xmlns="http://www.w3.org/2000/svg" xmlns:xlink="http://www.w3.org/1999/xlink" x="0px" y="0px"
	 viewBox="0 0 40 40" style="enable-background:new 0 0 40 40;" xml:space="preserve">
<style type="text/css">
	.st0{fill:none;stroke:#FFFFFF;stroke-width:2;stroke-miterlimit:10;}
</style>
<path class="st0" d="M34.1,37.8c-4.7-2.6-9.4-5.2-14.1-7.9c-4.7,2.6-9.4,5.2-14.1,7.9c1.8-4.4,3.5-8.8,5.3-13.2
	c-2.9-2.8-5.8-5.7-8.8-8.5c4-0.1,8.2-0.2,12.2-0.3c1.8-4.4,3.5-8.8,5.3-13.2c1.8,4.4,3.5,8.8,5.3,13.2c4.1,0.1,8.3,0.1,12.4,0.2
	c-3,2.9-5.9,5.8-8.9,8.6C30.6,29,32.3,33.4,34.1,37.8z"/>
</svg>
