<svg aria-hidden="true" style="position: absolute; width: 0; height: 0; overflow: hidden;" version="1.1" xmlns="http://www.w3.org/2000/svg" xmlns:xlink="http://www.w3.org/1999/xlink">
<defs>
<symbol id="icon-arrow" viewBox="0 0 32 32">
<title>arrow</title>
<path fill="none" stroke="#656565" style="stroke: var(--color1, #656565)" stroke-linejoin="miter" stroke-linecap="round" stroke-miterlimit="1" stroke-width="0.96" d="M26.080 0.48h5.6"></path>
<path fill="none" stroke="#656565" style="stroke: var(--color1, #656565)" stroke-linejoin="miter" stroke-linecap="round" stroke-miterlimit="1" stroke-width="0.96" d="M31.6 5.92v-5.6"></path>
<path fill="none" stroke="#656565" style="stroke: var(--color1, #656565)" stroke-linejoin="miter" stroke-linecap="round" stroke-miterlimit="1" stroke-width="0.96" d="M7.92 23.92l32-32"></path>
<path fill="none" stroke="#656565" style="stroke: var(--color1, #656565)" stroke-linejoin="miter" stroke-linecap="round" stroke-miterlimit="1" stroke-width="0.96" d="M26.080 31.52l-25.68-25.52c7.2-5.76 17.76-5.12 24.24 1.36 6.56 6.48 7.12 16.96 1.44 24.16z"></path>
<path fill="none" stroke="#656565" style="stroke: var(--color1, #656565)" stroke-linejoin="miter" stroke-linecap="round" stroke-miterlimit="1" stroke-width="0.96" d="M3.92 23.92l-3.52 3.68"></path>
<path fill="none" stroke="#656565" style="stroke: var(--color1, #656565)" stroke-linejoin="miter" stroke-linecap="round" stroke-miterlimit="1" stroke-width="0.96" d="M7.92 23.92h-4"></path>
<path fill="none" stroke="#656565" style="stroke: var(--color1, #656565)" stroke-linejoin="miter" stroke-linecap="round" stroke-miterlimit="1" stroke-width="0.96" d="M7.92 28v-4.080"></path>
<path fill="none" stroke="#656565" style="stroke: var(--color1, #656565)" stroke-linejoin="miter" stroke-linecap="round" stroke-miterlimit="1" stroke-width="0.96" d="M3.92 31.52l4-3.52"></path>
<path fill="none" stroke="#656565" style="stroke: var(--color1, #656565)" stroke-linejoin="miter" stroke-linecap="round" stroke-miterlimit="1" stroke-width="0.96" d="M4.96 26.96l-1.040 4.64"></path>
<path fill="none" stroke="#656565" style="stroke: var(--color1, #656565)" stroke-linejoin="miter" stroke-linecap="round" stroke-miterlimit="1" stroke-width="0.96" d="M0.4 27.92l4.56-0.96"></path>
</symbol>
<symbol id="icon-clock" viewBox="0 0 32 32">
<title>clock</title>
<path fill="#fff" style="fill: var(--color2, #fff)" d="M32 16c0 8.837-7.163 16-16 16s-16-7.163-16-16c0-8.837 7.163-16 16-16s16 7.163 16 16z"></path>
</symbol>
<symbol id="icon-colordash" viewBox="0 0 32 32">
<title>colordash</title>
<path stroke-linejoin="miter" stroke-linecap="round" stroke-miterlimit="10" stroke-width="1.2" d="M30.72 29.44c-0.56 0.96-2 2.080-3.68 2.080-1.68 0.080-3.12-1.2-3.68-2.16-1.36-2.32 0.24-5.36 3.52-9.68 3.12 3.76 5.2 7.44 3.84 9.76z"></path>
<path stroke-linejoin="miter" stroke-linecap="round" stroke-miterlimit="10" stroke-width="1.2" d="M27.040 17.44h-4.16"></path>
<path stroke-linejoin="miter" stroke-linecap="round" stroke-miterlimit="10" stroke-width="1.2" d="M12.24 27.52l10.64-10.080"></path>
<path stroke-linejoin="miter" stroke-linecap="round" stroke-miterlimit="10" stroke-width="1.2" d="M12.24 27.52l-11.84-11.040"></path>
<path stroke-linejoin="miter" stroke-linecap="round" stroke-miterlimit="10" stroke-width="1.2" d="M13.6 4.88l-13.2 11.6"></path>
<path stroke-linejoin="miter" stroke-linecap="round" stroke-miterlimit="1" stroke-width="1.2" d="M27.040 17.28l-13.44-12.4"></path>
<path stroke-linejoin="bevel" stroke-linecap="round" stroke-miterlimit="1" stroke-width="1.2" d="M13.52 13.36v-9.68"></path>
<path stroke-linejoin="bevel" stroke-linecap="round" stroke-miterlimit="1" stroke-width="1.2" d="M7.040 4.24c0-2 1.44-3.6 3.28-3.6s3.28 1.6 3.28 3.6"></path>
<path stroke-linejoin="bevel" stroke-linecap="round" stroke-miterlimit="1" stroke-width="1.2" d="M7.040 10.72v-6.56"></path>
</symbol>
<symbol id="icon-diamond" viewBox="0 0 32 32">
<title>diamond</title>
<path stroke-linejoin="bevel" stroke-linecap="round" stroke-miterlimit="10" stroke-width="0.8" d="M0.96 8.64l14.96 22.32"></path>
<path stroke-linejoin="bevel" stroke-linecap="round" stroke-miterlimit="10" stroke-width="0.8" d="M31.040 8.64l-15.040 22.32"></path>
<path stroke-linejoin="bevel" stroke-linecap="round" stroke-miterlimit="10" stroke-width="0.8" d="M8.080 2h15.84"></path>
<path stroke-linejoin="bevel" stroke-linecap="round" stroke-miterlimit="10" stroke-width="0.8" d="M0.96 8.64l7.12-6.64"></path>
<path stroke-linejoin="bevel" stroke-linecap="round" stroke-miterlimit="10" stroke-width="0.8" d="M31.040 8.64l-7.12-6.64"></path>
<path stroke-linejoin="bevel" stroke-linecap="round" stroke-miterlimit="10" stroke-width="0.8" d="M8.080 2l7.92 7.040"></path>
<path stroke-linejoin="bevel" stroke-linecap="round" stroke-miterlimit="10" stroke-width="0.8" d="M23.92 2l-7.92 7.040"></path>
<path stroke-linejoin="bevel" stroke-linecap="round" stroke-miterlimit="10" stroke-width="0.8" d="M16 9.36v21.6"></path>
<path stroke-linejoin="bevel" stroke-linecap="round" stroke-miterlimit="10" stroke-width="0.8" d="M0.96 8.64h30.080"></path>
</symbol>
<symbol id="icon-gamepad" viewBox="0 0 32 32">
<title>gamepad</title>
<path fill="none" stroke="#666" style="stroke: var(--color3, #666)" stroke-linejoin="miter" stroke-linecap="round" stroke-miterlimit="20" stroke-width="1.2" d="M7.28 14.8c3.12-0.8 4.080 2.080 8.96 2.080 4.72-0.080 5.6-2.8 8.64-2.080 5.6 1.36 6.72 11.84 6.64 13.6-0.080 1.2-0.16 2.72-0.96 3.040 0 0-0.080 0.080-0.24 0.080-2.72 0.48-6.64-3.040-6.64-3.040-3.2-2.88-2.64-3.68-4.48-4.56-1.92-0.96-4.56-1.040-6.64 0-2 1.040-1.68 2.24-4.16 4.48-2 1.76-5.36 3.92-6.88 2.96-0.64-0.4-0.8-1.36-0.8-2.96 0.16-3.6 1.52-12.32 6.56-13.6z"></path>
<path fill="none" stroke="#666" style="stroke: var(--color3, #666)" stroke-linejoin="miter" stroke-linecap="round" stroke-miterlimit="20" stroke-width="1.2" d="M8.4 17.68v4.8"></path>
<path fill="none" stroke="#666" style="stroke: var(--color3, #666)" stroke-linejoin="miter" stroke-linecap="round" stroke-miterlimit="20" stroke-width="1.2" d="M5.84 20.080h5.2"></path>
<path fill="none" stroke="#666" style="stroke: var(--color3, #666)" stroke-linejoin="miter" stroke-linecap="round" stroke-miterlimit="20" stroke-width="1.2" d="M23.12 20.24c0 0.928-0.752 1.68-1.68 1.68s-1.68-0.752-1.68-1.68c0-0.928 0.752-1.68 1.68-1.68s1.68 0.752 1.68 1.68z"></path>
<path fill="none" stroke="#666" style="stroke: var(--color3, #666)" stroke-linejoin="miter" stroke-linecap="round" stroke-miterlimit="20" stroke-width="1.2" d="M27.84 22.16c0 0.884-0.716 1.6-1.6 1.6s-1.6-0.716-1.6-1.6c0-0.884 0.716-1.6 1.6-1.6s1.6 0.716 1.6 1.6z"></path>
<path fill="none" stroke="#666" style="stroke: var(--color3, #666)" stroke-linejoin="miter" stroke-linecap="round" stroke-miterlimit="20" stroke-width="1.2" d="M31.44 1.28c0 0.8 0 3.6-2.080 5.76-0.24 0.24-1.28 1.28-3.12 1.84-3.6 1.12-5.68-1.040-7.76-0.080-1.2 0.56-2.4 2.24-2.56 7.12"></path>
</symbol>
<symbol id="icon-love" viewBox="0 0 32 32">
<title>love</title>
<path fill="none" stroke="#666" style="stroke: var(--color3, #666)" stroke-linejoin="miter" stroke-linecap="round" stroke-miterlimit="20" stroke-width="1.2" d="M31.44 1.28c0 0.8 0 3.6-2.080 5.76-0.24 0.24-1.28 1.28-3.12 1.84-3.6 1.12-5.68-1.040-7.76-0.080-1.2 0.56-2.4 2.24-2.56 7.12"></path>
</symbol>
<symbol id="icon-magic" viewBox="0 0 32 32">
<title>magic</title>
<path stroke-linejoin="miter" stroke-linecap="round" stroke-miterlimit="10" stroke-width="1.2" d="M0.48 31.52l15.92-15.92"></path>
<path stroke-linejoin="miter" stroke-linecap="round" stroke-miterlimit="10" stroke-width="1.2" d="M20.64 1.040v4.8"></path>
<path stroke-linejoin="miter" stroke-linecap="round" stroke-miterlimit="10" stroke-width="1.2" d="M31.2 11.6h-4.8"></path>
<path stroke-linejoin="miter" stroke-linecap="round" stroke-miterlimit="10" stroke-width="1.2" d="M14.88 11.6h-4.8"></path>
<path stroke-linejoin="miter" stroke-linecap="round" stroke-miterlimit="10" stroke-width="1.2" d="M20.64 17.28v4.8"></path>
<path stroke-linejoin="miter" stroke-linecap="round" stroke-miterlimit="10" stroke-width="1.2" d="M24.56 7.44l3.36-3.36"></path>
<path stroke-linejoin="miter" stroke-linecap="round" stroke-miterlimit="10" stroke-width="1.2" d="M13.12 4.24l3.36 3.36"></path>
<path stroke-linejoin="miter" stroke-linecap="round" stroke-miterlimit="10" stroke-width="1.2" d="M24.56 15.68l3.44 3.44"></path>
</symbol>
<symbol id="icon-phone" viewBox="0 0 32 32">
<title>phone</title>
<path fill="none" stroke="#656565" style="stroke: var(--color1, #656565)" stroke-linejoin="miter" stroke-linecap="butt" stroke-miterlimit="10" stroke-width="1.2" d="M23.6 31.44h-15.28c-0.64 0-1.2-0.56-1.2-1.2v-28.48c0-0.64 0.56-1.2 1.2-1.2h15.28c0.64 0 1.2 0.56 1.2 1.2v28.4c0 0.72-0.56 1.28-1.2 1.28z"></path>
<path fill="none" stroke="#656565" style="stroke: var(--color1, #656565)" stroke-linejoin="miter" stroke-linecap="butt" stroke-miterlimit="10" stroke-width="1.2" d="M7.12 4.48h17.36"></path>
<path fill="none" stroke="#656565" style="stroke: var(--color1, #656565)" stroke-linejoin="miter" stroke-linecap="butt" stroke-miterlimit="10" stroke-width="1.2" d="M7.12 23.6h17.68"></path>
<path fill="none" stroke="#656565" style="stroke: var(--color1, #656565)" stroke-linejoin="miter" stroke-linecap="round" stroke-miterlimit="10" stroke-width="1.2" d="M13.44 27.76h5.2"></path>
</symbol>
<symbol id="icon-plain" viewBox="0 0 32 32">
<title>plain</title>
<path stroke-linejoin="round" stroke-linecap="round" stroke-miterlimit="10" stroke-width="1.2" d="M20.88 7.2l7.28-6.56"></path>
<path stroke-linejoin="round" stroke-linecap="round" stroke-miterlimit="10" stroke-width="1.2" d="M31.28 0.64h-3.12"></path>
<path stroke-linejoin="miter" stroke-linecap="round" stroke-miterlimit="10" stroke-width="1.2" d="M4 3.92l16.88 3.28"></path>
<path stroke-linejoin="miter" stroke-linecap="round" stroke-miterlimit="10" stroke-width="1.2" d="M1.92 5.84l2.080-1.92"></path>
<path stroke-linejoin="miter" stroke-linecap="round" stroke-miterlimit="10" stroke-width="1.2" d="M15.36 12.64l-13.44-6.8"></path>
<path stroke-linejoin="miter" stroke-linecap="round" stroke-miterlimit="10" stroke-width="1.2" d="M15.36 12.64l-9.12 9.12"></path>
<path stroke-linejoin="miter" stroke-linecap="round" stroke-miterlimit="10" stroke-width="1.2" d="M6.24 21.76l-5.2 0.88"></path>
<path stroke-linejoin="miter" stroke-linecap="round" stroke-miterlimit="10" stroke-width="1.2" d="M0.56 24.64l0.48-2"></path>
<path stroke-linejoin="miter" stroke-linecap="round" stroke-miterlimit="10" stroke-width="1.2" d="M6.48 25.28l-5.92-0.64"></path>
<path stroke-linejoin="round" stroke-linecap="round" stroke-miterlimit="10" stroke-width="1.2" d="M24.8 11.12l6.56-7.28"></path>
<path stroke-linejoin="round" stroke-linecap="round" stroke-miterlimit="10" stroke-width="1.2" d="M31.36 0.72v3.12"></path>
<path stroke-linejoin="miter" stroke-linecap="round" stroke-miterlimit="10" stroke-width="1.2" d="M28.080 27.84l-3.28-16.72"></path>
<path stroke-linejoin="miter" stroke-linecap="round" stroke-miterlimit="10" stroke-width="1.2" d="M26.16 30l1.92-2.16"></path>
<path stroke-linejoin="miter" stroke-linecap="round" stroke-miterlimit="10" stroke-width="1.2" d="M19.36 16.56l6.8 13.44"></path>
<path stroke-linejoin="miter" stroke-linecap="round" stroke-miterlimit="10" stroke-width="1.2" d="M19.36 16.56l-9.2 9.12"></path>
<path stroke-linejoin="miter" stroke-linecap="round" stroke-miterlimit="10" stroke-width="1.2" d="M10.16 25.68l-0.88 5.12"></path>
<path stroke-linejoin="miter" stroke-linecap="round" stroke-miterlimit="10" stroke-width="1.2" d="M7.2 31.36l2.080-0.56"></path>
<path stroke-linejoin="miter" stroke-linecap="round" stroke-miterlimit="10" stroke-width="1.2" d="M6.64 25.36l0.56 6"></path>
</symbol>
<symbol id="icon-portfolio" viewBox="0 0 32 32">
<title>portfolio</title>
<path stroke-linejoin="miter" stroke-linecap="round" stroke-miterlimit="10" stroke-width="1.2" d="M6.64 25.36l0.56 6"></path>
</symbol>
<symbol id="icon-star" viewBox="0 0 32 32">
<title>star</title>
<path fill="none" stroke="#fff" style="stroke: var(--color2, #fff)" stroke-linejoin="miter" stroke-linecap="butt" stroke-miterlimit="10" stroke-width="0.8" d="M28.16 31.040c-4-2.24-8.16-4.48-12.16-6.72-4 2.24-8.16 4.48-12.16 6.72 1.52-3.76 3.040-7.44 4.56-11.2-2.48-2.4-5.040-4.88-7.52-7.28 3.52-0.080 7.040-0.16 10.56-0.24 1.52-3.76 3.040-7.44 4.56-11.2 1.52 3.76 3.040 7.44 4.56 11.2 3.6 0.080 7.12 0.080 10.72 0.16-2.56 2.48-5.12 4.96-7.68 7.36 1.52 3.76 3.040 7.52 4.56 11.2z"></path>
</symbol>
</defs>
</svg>
